<?xml version="1.0" encoding="utf-8"?>
<!-- Generator: Adobe Illustrator 21.1.0, SVG Export Plug-In . SVG Version: 6.00 Build 0)  -->
<svg version="1.1" id="Слой_1" xmlns="http://www.w3.org/2000/svg" xmlns:xlink="http://www.w3.org/1999/xlink" x="0px" y="0px"
	 viewBox="0 0 512 512" style="enable-background:new 0 0 512 512;" xml:space="preserve">
<style type="text/css">
	.st0{fill:#FFFFFF;stroke:#FFFFFF;stroke-miterlimit:10;}
	.st1{fill:#2D9FFF;}
</style>
<g id="Слой_2">
	<circle class="st0" cx="256" cy="256" r="256"/>
</g>
<g id="Layer_1">
	<g>
		<g>
			<path class="st1" d="M452.9,148.6c0-0.6-0.2-1.1-0.3-1.7c-0.1-0.6-0.2-1.1-0.5-1.6c0-0.1,0-0.2-0.1-0.3l-35.1-68.7
				c-1.5-2.9-4.4-4.7-7.6-4.7H222c-3.2,0-6.2,1.8-7.6,4.7L179.3,145c0,0.1,0,0.2-0.1,0.3c-0.2,0.5-0.3,1.1-0.5,1.6
				c-0.1,0.6-0.3,1.1-0.3,1.7c0,0.1-0.1,0.2-0.1,0.3v103.3c-15.6,0.9-29.2,4-37.5,6.3c-2.6-9-9.9-16.2-19.6-18.2l-69.9-14
				c-2.5-0.5-5.1,0.2-7.1,1.8s-3.1,4.1-3.1,6.6V372c0,4.7,3.8,8.6,8.6,8.6h53.8c10.6,0,19.6-6.7,23.5-16.2
				c19.1,9.2,108,50.6,145.8,50.6c33.3,0,101.8-33.7,147.2-56c11.8-5.8,21.6-10.6,28-13.4c3.1-1.4,5.1-4.5,5.1-7.9V148.9
				C453,148.8,452.9,148.7,452.9,148.6z M124.6,266.8l-12.8,89.4c-0.6,4.2-4.2,7.4-8.5,7.4H58.2V245.2l59.6,11.9
				C122.3,258,125.3,262.3,124.6,266.8z M404.1,88.8l26.3,51.5h-65.1l-12.9-51.5H404.1z M296.6,88.8h38.1l12.9,51.5h-63.8
				L296.6,88.8z M281.3,157.5H350v34.3h-68.7V157.5z M227.3,88.8H279l-12.9,51.5H201L227.3,88.8z M412.3,343.6
				c-41.2,20.3-110.3,54.2-139.6,54.2c-31.2,0-113.2-36.6-142.2-50.6h-0.1l10.1-70.7c6.2-2,25.4-7.4,46.3-7.4
				c12.7,0,22.5,4.7,34.8,10.7c11.1,5.4,23.7,11.4,40.7,14.9c37.3,7.6,53.2,15.3,53.2,25.9c0,2.1-0.6,3.4-2.3,4.6
				c-5.4,4.1-26.7,10.9-106.9-12.8c-4.6-1.3-9.3,1.3-10.7,5.8c-1.3,4.5,1.2,9.3,5.8,10.7c39.5,11.7,69.8,17.6,91.2,17.6
				c14,0,24.2-2.5,30.8-7.4c0.6-0.4,1-0.9,1.5-1.4c0.5-0.1,1.1,0,1.6-0.2c15.2-4.7,58.2-16.8,74.7-16.8c14,0,28.7,4.3,33.1,12.2
				C428.6,335.6,421,339.4,412.3,343.6z M435.8,311.5c-8.9-5.1-20.6-8.1-34.3-8.1c-16.8,0-51.5,9.3-69.1,14.4
				c-2.3-24.6-33.9-33.4-66.5-40c-14.9-3-26-8.4-36.7-13.5c-10.8-5.2-21.2-10-33.7-11.6v-95.2h68.7v42.9c0,4.7,3.8,8.6,8.6,8.6h85.8
				c4.7,0,8.6-3.8,8.6-8.6v-42.9h68.7L435.8,311.5L435.8,311.5z"/>
		</g>
	</g>
</g>
</svg>
