<?xml version="1.0" encoding="utf-8"?>
<!-- Generator: Adobe Illustrator 21.1.0, SVG Export Plug-In . SVG Version: 6.00 Build 0)  -->
<svg version="1.1" id="Слой_1" xmlns="http://www.w3.org/2000/svg" xmlns:xlink="http://www.w3.org/1999/xlink" x="0px" y="0px"
	 viewBox="0 0 512 512" style="enable-background:new 0 0 512 512;" xml:space="preserve">
<style type="text/css">
	.st0{fill:#FFFFFF;}
	.st1{fill:#2D9FFF;}
</style>
<g id="Слой_2">
	<circle class="st0" cx="256" cy="256" r="256"/>
</g>
<g id="Capa_1">
	<g>
		<g>
			<path class="st1" d="M415.6,92.4H96.4c-12.6,0-22.8,10.2-22.8,22.8v258.4c0,12.6,10.2,22.8,22.8,22.8h182.4v-15.2H96.4
				c-4.2,0-7.6-3.4-7.6-7.6V115.2c0-4.2,3.4-7.6,7.6-7.6h319.2c4.2,0,7.6,3.4,7.6,7.6v258.4c0,4.2-3.4,7.6-7.6,7.6h-15.2v15.2h15.2
				c12.6,0,22.8-10.2,22.8-22.8V115.2C438.4,102.6,428.2,92.4,415.6,92.4z"/>
		</g>
	</g>
	<g>
		<g>
			<path class="st1" d="M392.8,168.4c-16.8,0-30.4-13.6-30.4-30.4c0-4.2-3.4-7.6-7.6-7.6H157.2c-4.2,0-7.6,3.4-7.6,7.6
				c0,16.8-13.6,30.4-30.4,30.4c-4.2,0-7.6,3.4-7.6,7.6v136.8c0,4.2,3.4,7.6,7.6,7.6c16.8,0,30.4,13.6,30.4,30.4
				c0,4.2,3.4,7.6,7.6,7.6H256v-15.2h-91.8c-3.3-19.1-18.2-34.1-37.4-37.4V183c19.1-3.3,34.1-18.2,37.4-37.4h183.7
				c3.3,19.1,18.2,34.1,37.4,37.4v61.4h15.2V176C400.4,171.8,397,168.4,392.8,168.4z"/>
		</g>
	</g>
	<g>
		<g>
			<path class="st1" d="M339.6,252c-37.8,0-68.4,30.6-68.4,68.4s30.6,68.4,68.4,68.4s68.4-30.6,68.4-68.4S377.4,252,339.6,252z
				 M339.6,373.6c-29.4,0-53.2-23.8-53.2-53.2c0-29.4,23.8-53.2,53.2-53.2c29.4,0,53.2,23.8,53.2,53.2
				C392.8,349.8,369,373.6,339.6,373.6z"/>
		</g>
	</g>
	<g>
		<g>
			<path class="st1" d="M370,366v67.8l-25.6-20.5c-2.8-2.2-6.7-2.2-9.5,0l-25.6,20.5V366H294v83.6c0,1.7,0.6,3.4,1.7,4.8
				c2.6,3.3,7.4,3.8,10.7,1.2l33.2-26.6l33.2,26.6c1.3,1.1,3,1.7,4.8,1.7c4.2,0,7.6-3.4,7.6-7.6V366H370z"/>
		</g>
	</g>
	<g>
		<g>
			<path class="st1" d="M332,168.4H180c-4.2,0-7.6,3.4-7.6,7.6v30.4c0,4.2,3.4,7.6,7.6,7.6h152c4.2,0,7.6-3.4,7.6-7.6V176
				C339.6,171.8,336.2,168.4,332,168.4z M324.4,198.8H187.6v-15.2h136.8L324.4,198.8L324.4,198.8z"/>
		</g>
	</g>
	<g>
		<g>
			<rect x="164.8" y="236.8" class="st1" width="15.2" height="15.2"/>
		</g>
	</g>
	<g>
		<g>
			<rect x="195.2" y="236.8" class="st1" width="15.2" height="15.2"/>
		</g>
	</g>
	<g>
		<g>
			<rect x="164.8" y="267.2" class="st1" width="91.2" height="15.2"/>
		</g>
	</g>
	<g>
		<g>
			<path class="st1" d="M339.6,282.4c-21,0-38,17-38,38s17,38,38,38s38-17,38-38S360.6,282.4,339.6,282.4z M339.6,343.2
				c-12.6,0-22.8-10.2-22.8-22.8c0-12.6,10.2-22.8,22.8-22.8c12.6,0,22.8,10.2,22.8,22.8S352.2,343.2,339.6,343.2z"/>
		</g>
	</g>
	<g>
		<g>
			<rect x="111.6" y="343.2" class="st1" width="15.2" height="15.2"/>
		</g>
	</g>
	<g>
		<g>
			<rect x="385.2" y="130.4" class="st1" width="15.2" height="15.2"/>
		</g>
	</g>
	<g>
		<g>
			<rect x="111.6" y="130.4" class="st1" width="15.2" height="15.2"/>
		</g>
	</g>
</g>
</svg>
