<?xml version="1.0" encoding="utf-8"?>
<!-- Generator: Adobe Illustrator 21.1.0, SVG Export Plug-In . SVG Version: 6.00 Build 0)  -->
<svg version="1.1" xmlns="http://www.w3.org/2000/svg" xmlns:xlink="http://www.w3.org/1999/xlink" x="0px" y="0px"
	 viewBox="0 0 401 401" style="enable-background:new 0 0 401 401;" xml:space="preserve">
<style type="text/css">
	.st0{fill:#FFFFFF;}
	.st1{fill:#2D9FFF;}
</style>
<g id="Слой_2">
	<circle class="st0" cx="200.5" cy="200.5" r="200.5"/>
</g>
<g id="Capa_1">
	<path class="st1" d="M351.2,140.6l-36.5-38.6c-3.3-3.4-8.7-6.2-13.8-7.2c0.4-4.8,0.5-9.2,0.5-13c0-12.6,0-38.9-33.1-38.9
		c-15,0-34.1,9.4-47,18.1c-1.5,1-3.5,2.4-5.6,4c-3.3-1-6.8-1.6-10.5-1.6s-7.2,0.6-10.5,1.6c-2.1-1.6-4-3-5.6-4
		c-12.9-8.8-32-18.1-47-18.1c-33.1,0-33.1,26.3-33.1,38.9c0,3.6,0.1,8,0.5,12.6h-5.8c-5.9,0-13.5,3.2-17.5,7.5l-36.5,38.6
		c-4.1,2.4-6.9,6.8-6.9,11.9v34.1c0,7.6,6.2,13.7,13.7,13.7h3.7c-0.1,0.8-0.1,1.5-0.1,2.3l6.9,120c0.4,7.4,6.8,13.4,14.2,13.4h238
		c7.4,0,13.8-6,14.2-13.4l6.9-120c0-0.8,0-1.5-0.1-2.3h3.7c7.6,0,13.7-6.2,13.7-13.7v-34.1C358,147.4,355.3,143,351.2,140.6z
		 M296.7,114.8c1-2.7,1.8-5.4,2.4-8.2c2.5,0.6,5.6,2.1,7,3.6l27.1,28.6h-120v-17.7c3.2,1.7,6.4,3.2,9.5,4.5
		c14.8,6.1,32.9,10.1,46.2,10.1C277.9,135.7,290.2,132.1,296.7,114.8z M227.9,70.9c14.3-9.8,30.2-16.1,40.3-16.1
		c18.2,0,21.3,8.4,21.3,27.1c0,42-15.7,42-20.8,42c-11.6,0-28.4-3.7-41.6-9.2c-0.3-0.1-0.6-0.2-0.9-0.4c4.8-3.8,8.3-8.9,9.9-14.7
		l23.2-3c3.2-0.4,5.5-3.4,5.1-6.6c-0.4-3.2-3.4-5.5-6.6-5.1l-21.2,2.7c-1.2-6.3-4.6-12-9.5-16.2C227.4,71.3,227.6,71.1,227.9,70.9z
		 M225.3,92.6c0,0.1,0,0.3,0,0.4c-0.1,0.5-0.2,1.1-0.1,1.7c-1.2,8.5-9.7,15.1-19.9,15.1c-10.2,0-18.7-6.6-19.9-15.1
		c0-0.6,0-1.1-0.1-1.7c0-0.1,0-0.3,0-0.4c0-9.5,9-17.2,20.1-17.2C216.3,75.4,225.3,83.1,225.3,92.6z M142.3,54.8
		c10.1,0,26,6.3,40.3,16.1c0.3,0.2,0.6,0.4,0.8,0.6c-4.9,4.2-8.4,9.9-9.5,16.2L152.6,85c-3.2-0.4-6.2,1.9-6.6,5.1
		c-0.4,3.2,1.9,6.2,5.1,6.6l23.2,3c1.6,5.8,5.1,10.9,9.9,14.7c-0.3,0.1-0.6,0.2-0.9,0.4c-13.3,5.5-30,9.2-41.6,9.2
		c-5.1,0-20.8,0-20.8-42C121,63.2,124,54.8,142.3,54.8z M197.4,324.2H81.5c-1.2,0-2.4-1.1-2.4-2.3l-6.9-120c0-0.6,0.2-0.9,0.4-1.2
		c0.2-0.2,0.6-0.5,1.1-0.5h123.7V324.2z M197.4,188.5H73.7H56.7c-1.1,0-2-0.9-2-2v-34l1.9-2c0,0,0,0,0.1,0h140.7V188.5z M67.8,138.7
		l27.1-28.6c1.8-1.9,6.3-3.9,9-3.9h7.5c0.6,2.9,1.4,5.7,2.5,8.5c6.5,17.3,18.8,20.9,28,20.9c13.3,0,31.4-4,46.2-10.1
		c3.1-1.3,6.3-2.8,9.5-4.5v17.7L67.8,138.7L67.8,138.7z M321.9,321.9c-0.1,1.2-1.2,2.3-2.4,2.3H213.1V200.3h114.2
		c0.6,0,0.9,0.2,1.1,0.5s0.4,0.6,0.4,1.2L321.9,321.9z M346.2,186.6c0,1.1-0.9,2-2,2h-16.9H213.1v-38h131.2c0,0,0,0,0.1,0l1.9,2
		L346.2,186.6L346.2,186.6z"/>
</g>
</svg>
