<?xml version="1.0" encoding="utf-8"?>
<!-- Generator: Adobe Illustrator 21.1.0, SVG Export Plug-In . SVG Version: 6.00 Build 0)  -->
<svg version="1.1" xmlns="http://www.w3.org/2000/svg" xmlns:xlink="http://www.w3.org/1999/xlink" x="0px" y="0px"
	 viewBox="0 0 512 512" style="enable-background:new 0 0 512 512;" xml:space="preserve">
<style type="text/css">
	.st0{fill:#FFFFFF;}
	.st1{fill:#2D9FFF;}
</style>
<g id="Слой_2">
	<circle class="st0" cx="256" cy="256" r="256"/>
</g>
<g id="Capa_1">
	<g>
		<g>
			<path class="st1" d="M246.4,327c-2.8-2.1-6.7-1.5-8.8,1.3l-0.8,1.1c-2.1,2.8-1.5,6.7,1.3,8.8c1.1,0.8,2.4,1.2,3.7,1.2
				c1.9,0,3.8-0.9,5.1-2.6l0.8-1.1C249.8,333,249.2,329.1,246.4,327z"/>
		</g>
	</g>
	<g>
		<g>
			<path class="st1" d="M248.1,386.9l-16.2-29.4l15.1-20.6c2.1-2.8,1.5-6.7-1.3-8.8c-2.8-2.1-6.7-1.5-8.8,1.3l-17.5,23.8
				c-1.5,2-1.6,4.6-0.4,6.8l18.1,32.9v0c1.1,2.1,3.3,3.3,5.5,3.3c1,0,2.1-0.3,3-0.8C248.6,393.7,249.7,389.9,248.1,386.9z"/>
		</g>
	</g>
	<g>
		<g>
			<path class="st1" d="M295,353.2l-17.4-23.7c-1.4-2-3.9-2.9-6.3-2.4c-2.4,0.5-4.3,2.3-4.9,4.6c-0.5,1.8-0.1,3.7,1,5.3l15,20.5
				l-16.1,29.2c-0.5,0.9-0.8,2-0.8,3c0,2.9,1.9,5.4,4.7,6.1c0.5,0.1,1,0.2,1.6,0.2c2.3,0,4.4-1.2,5.5-3.3l18-32.7
				C296.6,357.8,296.4,355.2,295,353.2z"/>
		</g>
	</g>
	<g>
		<g>
			<path class="st1" d="M304.9,254.4c-2.1-1.1-4.6-0.9-6.5,0.4c-3.7,2.6-7.2,5.3-10.3,8.1c-16.9,15.3-33,13.2-33.6,13.1
				c-0.4-0.1-0.8-0.1-1.1-0.1c-6.7,0.2-18.8-5.9-31.5-16c-2-1.5-4-3-6-4.3c-1.9-1.3-4.4-1.4-6.5-0.3c-2.1,1.1-3.3,3.2-3.3,5.6v21.6
				c0,1.9,0.9,3.7,2.4,4.9c0.2,0.1,0.4,0.3,0.5,0.4l44.6,29.8c0,0,0,0,0,0l0.1,0.1c1.1,0.7,2.3,1,3.5,1c1,0,2-0.2,3-0.7
				c0.2-0.1,0.4-0.2,0.6-0.3c0,0,0,0,0.1,0c0,0,0,0,0.1,0l44.5-29.7c0.2-0.1,0.4-0.2,0.5-0.4c1.5-1.2,2.4-3,2.4-5v-22.5
				C308.3,257.6,307,255.4,304.9,254.4z M295.7,279.1l-38.5,25.8l-38.5-25.8v-5.7c9.4,6.8,23.2,15.2,34.4,15.2c0,0,0,0,0.1,0
				c3.8,0.4,23,1.6,42.6-15.6L295.7,279.1L295.7,279.1z"/>
		</g>
	</g>
	<g>
		<g>
			<path class="st1" d="M263.4,311.3c-0.4-2.5-2.3-4.5-4.7-5.1c-2.5-0.6-5,0.4-6.5,2.4l-14.5,19.7c-2.1,2.8-1.5,6.7,1.3,8.8
				c1.1,0.8,2.4,1.2,3.7,1.2c1.9,0,3.8-0.9,5.1-2.6l14.4-19.6c0.8-1.1,1.3-2.4,1.3-3.8C263.5,312,263.4,311.7,263.4,311.3z"/>
		</g>
	</g>
	<g>
		<g>
			<path class="st1" d="M353,108.5c-0.1-1-3.1-22.3-23.1-30.6c0.6-3.7,0.5-8.5-1.9-13.2c-3.2-6.3-9.5-10.4-18.7-12.2
				c-0.4-0.1-0.8-0.1-1.2-0.1h-84.4c-34.3,0-62.2,27.9-62.2,62.2v33.1c0,8.6,2.9,17.1,8.3,23.7c2.6,3.3,5.9,9.1,6.4,17.8
				c0.2,3.4,3,6,6.5,5.9c3.4-0.1,6.1-2.9,6.1-6.3v-43.2c4.3-17.7,18.9-21.1,21.4-21.6h27.3c3.2,0,6.4-0.5,9.4-1.5
				c5.2-1.7,13.4-4.7,19.4-7c4-1.5,8.5-1.6,12.5-0.2l29.2,10.3c14.6,5.4,17.2,18.2,17.6,20.2v51.9c0,3.3,2.5,6,5.8,6.3
				c0.2,0,0.3,0,0.5,0c3.1,0,5.8-2.3,6.2-5.4c0-0.2,2.5-16.4,10.6-29.4c2.8-4.5,4.3-9.7,4.3-14.9v-45.1
				C353.1,109,353.1,108.8,353,108.5z M340.5,154.4c0,2.8-0.8,5.6-2.3,8.1v-17c0-0.2,0-0.5,0-0.7c-0.1-0.9-2.7-22.5-25.8-31
				c0,0-0.1,0-0.1,0L283,103.5c-3.3-1.2-6.8-1.7-10.2-1.7c-3.7,0-7.4,0.7-10.9,2c-8.4,3.2-14.9,5.5-18.8,6.8
				c-1.8,0.6-3.6,0.9-5.6,0.9h-27.8c-0.3,0-0.5,0-0.8,0.1c-1.1,0.1-26.2,3.7-32.5,32c-0.1,0.4-0.2,0.9-0.2,1.4v12.9
				c-1.4-3.2-2.1-6.6-2.1-10.1v-33.1c0-27.4,22.3-49.6,49.6-49.6h83.8c3.5,0.7,7.7,2.3,9.3,5.3c2,3.8-0.3,9-0.3,9
				c-0.8,1.7-0.8,3.7,0,5.4c0.8,1.7,2.4,3,4.2,3.4c16,3.9,19.3,19.2,19.7,21.7L340.5,154.4L340.5,154.4z"/>
		</g>
	</g>
	<g>
		<g>
			<path class="st1" d="M338.2,144.8c-0.1-0.9-2.7-22.5-25.8-31c0,0-0.1,0-0.1,0L283,103.5c-6.9-2.4-14.4-2.3-21.1,0.3
				c-8.4,3.2-14.9,5.5-18.8,6.8c-1.8,0.6-3.6,0.9-5.6,0.9h-27.8c-0.3,0-0.5,0-0.8,0.1c-1.1,0.1-26.2,3.7-32.5,32
				c-0.1,0.4-0.2,0.9-0.2,1.4V199c0,0,0,0.1,0,0.1c0,1.9,1.4,46.3,32,66.5l0.2,0.1c0.1,0.1,0.3,0.2,0.4,0.3c1.7,1.2,3.5,2.5,5.2,3.8
				c8.9,7,25.8,18.7,39,18.7c0,0,0,0,0.1,0c0.7,0.1,2,0.2,3.8,0.2c7.5,0,23.6-2,39.7-16.5c2.7-2.4,5.7-4.8,9-7.1l0.5-0.3
				c0.2-0.1,0.3-0.2,0.5-0.3c10.2-6.9,27.9-24.6,31.7-66.1c0-0.2,0-0.4,0-0.6v-52.3C338.2,145.3,338.2,145,338.2,144.8z
				 M325.6,197.5c-3.4,37.5-19.4,52-26.1,56.5c-0.2,0.2-0.5,0.3-0.7,0.5l-0.3,0.2c-3.7,2.6-7.2,5.3-10.3,8.1
				c-16.9,15.3-32.9,13.3-33.7,13.1c-0.4-0.1-0.7-0.1-1.1-0.1c-6.7,0.2-18.8-5.9-31.5-16c-2-1.5-4-3-5.9-4.3l-0.2-0.1
				c-0.2-0.1-0.3-0.2-0.5-0.3c-24.7-16.4-26.4-54.7-26.4-56.3v-53.3c4.3-17.7,19-21.1,21.4-21.6h27.3c3.2,0,6.4-0.5,9.4-1.5
				c5.2-1.7,13.4-4.7,19.4-7c4-1.5,8.5-1.6,12.5-0.2l29.2,10.3c14.6,5.4,17.2,18.2,17.6,20.2L325.6,197.5L325.6,197.5z"/>
		</g>
	</g>
	<g>
		<g>
			<path class="st1" d="M262.8,309.6c-1-2-2.9-3.3-5.1-3.5c-2.2-0.2-4.3,0.8-5.6,2.5L237,329.2c-2.1,2.8-1.5,6.7,1.3,8.8
				c1.1,0.8,2.4,1.2,3.7,1.2c1.9,0,3.8-0.9,5.1-2.6l15.1-20.5c0.8-1.1,1.2-2.5,1.2-3.8C263.5,311.4,263.2,310.4,262.8,309.6z"/>
		</g>
	</g>
	<g>
		<g>
			<path class="st1" d="M263.2,410.9c-2.4-2.5-6.3-2.6-8.8-0.3l-1.4,1.3c-2.2,2-2.7,5.2-1.2,7.7l0,0.1c1,1.7,2.7,2.9,4.6,3.2
				c0.3,0,0.6,0.1,0.9,0.1c1.7,0,3.3-0.7,4.4-1.8l1.4-1.4C265.5,417.3,265.6,413.3,263.2,410.9z"/>
		</g>
	</g>
	<g>
		<g>
			<path class="st1" d="M261.4,411.9l-1.4-1.3c-2.5-2.3-6.4-2.2-8.8,0.3c-2.4,2.5-2.3,6.4,0.1,8.8l1.4,1.4c1.2,1.2,2.8,1.8,4.4,1.8
				c0.3,0,0.6,0,0.9-0.1c2-0.3,3.7-1.5,4.6-3.2l0-0.1C264,417,263.5,413.9,261.4,411.9z"/>
		</g>
	</g>
	<g>
		<g>
			<path class="st1" d="M261.5,412L261.5,412c-1-0.9-2.2-1.5-3.6-1.7c-1.9-0.2-3.7,0.4-5,1.6l0,0c-1.3,1.2-2,2.8-2,4.5
				c0,1.7,0.6,3.4,1.9,4.6l0.1,0.1c1.2,1.2,2.8,1.8,4.4,1.8c1.6,0,3.2-0.6,4.4-1.8l0.1-0.1c1.2-1.2,1.9-2.9,1.8-4.6
				C263.5,414.8,262.7,413.2,261.5,412z"/>
		</g>
	</g>
	<g>
		<g>
			<path class="st1" d="M259.2,306.3c-2.6-0.8-5.5,0.1-7.1,2.4c-1.8,2.5-1.5,5.9,0.7,8.1c1.2,1.2,2.8,1.8,4.5,1.8
				c1.3,0,2.5-0.4,3.6-1.1c1.7-1.2,2.7-3.1,2.7-5.1v0C263.6,309.5,261.8,307.1,259.2,306.3z"/>
		</g>
	</g>
	<g>
		<g>
			<path class="st1" d="M262.3,308.6L262.3,308.6c-1.7-2.3-4.5-3.2-7.1-2.3c-2.6,0.8-4.3,3.3-4.3,6v0.1c0,2.3,1.3,4.4,3.3,5.5
				c0.9,0.5,1.9,0.7,3,0.7c1.2,0,2.5-0.4,3.5-1.1c1.4-1,2.4-2.5,2.7-4.2C263.7,311.7,263.3,310,262.3,308.6z"/>
		</g>
	</g>
	<g>
		<g>
			<path class="st1" d="M332,288.8c-0.7-1.7-2-3.1-3.8-3.7l-24.1-8.6c-0.2-0.1-0.4-0.1-0.6-0.2c-1.7-0.4-3.5-0.1-5,0.9l-44.7,29.9
				c0,0,0,0,0,0l3.5,5.2l-3.6-5.2c-1.3,0.9-2.3,2.2-2.6,3.7c-0.2,0.8-0.2,1.7-0.1,2.6c0.2,1,0.6,1.9,1.1,2.7l32.7,44.6
				c1.2,1.6,3.1,2.6,5.1,2.6c0.1,0,0.3,0,0.4,0c2.1-0.1,4.1-1.4,5.1-3.2l36.2-65.9C332.5,292.5,332.7,290.6,332,288.8z M289.1,345.3
				l-23-31.3l36.7-24.5l14.2,5.1L289.1,345.3z"/>
		</g>
	</g>
	<g>
		<g>
			<path class="st1" d="M263.4,311.3c-0.3-1.7-1.3-3.2-2.7-4.1l-44.8-30c-1.4-1-3.2-1.3-4.9-0.9c-0.3,0.1-0.5,0.1-0.8,0.2l-24.1,8.6
				c-1.7,0.6-3.1,2-3.8,3.7c-0.7,1.7-0.5,3.6,0.4,5.3l36.2,65.9c1,1.9,3,3.1,5.1,3.2c0.1,0,0.3,0,0.4,0c2,0,3.9-0.9,5.1-2.6
				l17.5-23.8c0,0,0,0,0-0.1l15.2-20.7C263.3,314.7,263.7,313,263.4,311.3z M236.9,329.4C236.8,329.4,236.8,329.5,236.9,329.4
				l-11.7,15.9l-27.9-50.8l14.2-5.1l36.7,24.5L236.9,329.4z"/>
		</g>
	</g>
	<g>
		<g>
			<path class="st1" d="M442.9,396.2l-8.1-49c-2.6-15.4-13.3-28.4-28-33.7l-78.5-28.4c-2.4-0.9-5.1-0.2-6.8,1.7
				c-1.7,1.9-2.1,4.7-0.9,7l16.4,32.9l-16.1,0.2c-2.2,0-4.2,1.2-5.3,3.1c-1.1,1.9-1.2,4.2-0.2,6.1l6.6,12.6l-67.5,61.8
				c-0.1,0.1-0.1,0.1-0.2,0.2l-1.4,1.4c-2,2-2.4,5-1.1,7.5l0,0.1c1.1,2,3.2,3.3,5.5,3.3h162.9c6.8,0,13.2-3,17.5-8.1
				C442.2,409.7,444,402.9,442.9,396.2z M428.2,406.7c-2,2.3-4.9,3.7-7.9,3.7h-147l60.8-55.6c2.1-1.9,2.7-5,1.3-7.6l-4.1-7.8
				l15.9-0.2c2.2,0,4.2-1.2,5.3-3c1.1-1.8,1.2-4.1,0.3-6.1l-13.8-27.7l63.7,23.1c10.4,3.8,18.1,12.9,19.9,23.9l8.1,49c0,0,0,0,0,0
				C431,401.3,430.2,404.4,428.2,406.7z"/>
		</g>
	</g>
	<g>
		<g>
			<path class="st1" d="M261.5,412L261.5,412c-2.6-2.3-6.4-2.2-8.8,0.2l-0.1,0.1c-1.8,1.8-2.3,4.5-1.3,6.9c1,2.3,3.3,3.9,5.8,3.9
				h0.1c2.6,0,4.9-1.6,5.9-4C264.1,416.5,263.5,413.8,261.5,412z"/>
		</g>
	</g>
	<g>
		<g>
			<path class="st1" d="M261.3,411.9c-1.4-1.3-3.4-1.8-5.3-1.5c-1.9,0.3-3.5,1.5-4.5,3.2l0,0.1c-1.3,2.4-0.9,5.4,1,7.4l0,0
				c1.2,1.3,2.9,1.9,4.5,1.9c1.5,0,3-0.5,4.2-1.6l0.1-0.1c0.6-0.5,1-1.1,1.4-1.8C264.1,416.9,263.4,413.8,261.3,411.9z"/>
		</g>
	</g>
	<g>
		<g>
			<path class="st1" d="M261.6,412.2L261.6,412.2C261.6,412.2,261.5,412.2,261.6,412.2l-1.5-1.5c-0.1-0.1-0.1-0.1-0.2-0.2
				l-67.5-61.8l6.6-12.6c1-1.9,1-4.3-0.2-6.1c-1.1-1.9-3.1-3-5.3-3.1l-16.1-0.2l16.4-32.9c1.1-2.3,0.8-5.1-0.9-7s-4.4-2.6-6.8-1.7
				l-78.5,28.4c-14.7,5.3-25.5,18.2-28,33.7l-8.1,49c-1.1,6.7,0.8,13.5,5.1,18.6c4.4,5.2,10.8,8.1,17.5,8.1h163.1
				c2.5,0,4.8-1.5,5.8-3.9C264,416.8,263.4,414,261.6,412.2z M94.1,410.4c-3.1,0-6-1.3-7.9-3.7c-2-2.3-2.8-5.4-2.3-8.4l8.1-49
				c1.8-11,9.4-20.1,19.9-23.9l63.7-23.1l-13.8,27.7c-1,1.9-0.9,4.2,0.3,6.1c1.1,1.8,3.1,3,5.3,3l15.9,0.2l-4.1,7.8
				c-1.3,2.5-0.8,5.6,1.3,7.6l60.8,55.6H94.1z"/>
		</g>
	</g>
	<g>
		<g>
			<path class="st1" d="M278.6,334.8c0.5-1.8,0.1-3.7-1-5.3l-15.3-20.9c-1.6-2.2-4.4-3.1-7-2.2c-1.4,0.5-2.5,1.4-3.3,2.6l-15,20.4
				c-0.2,0.3-0.4,0.6-0.6,0.9c-1,2.1-0.9,4.5,0.5,6.4l6.4,9.2l-6.8,43c-0.2,1.4,0,2.8,0.7,4l14.6,26.6c1.1,2,3.2,3.3,5.5,3.3
				c2.3,0,4.4-1.2,5.5-3.3l14.7-26.8c0.5-0.9,0.8-2,0.8-3v0c0-0.3,0-0.7-0.1-1l-6.8-42.8l6.3-9.1
				C278.1,336.2,278.4,335.5,278.6,334.8z M257.2,403.4l-8.1-14.6l6.9-43.4c0.3-1.6-0.1-3.2-1.1-4.6l-5.3-7.6l7.5-10.2l7.6,10.3
				l-5.2,7.5c-0.9,1.3-1.3,3-1.1,4.6l6.8,43.2L257.2,403.4z"/>
		</g>
	</g>
</g>
</svg>
