<?xml version="1.0" encoding="utf-8"?>
<!-- Generator: Adobe Illustrator 21.1.0, SVG Export Plug-In . SVG Version: 6.00 Build 0)  -->
<svg version="1.1" xmlns="http://www.w3.org/2000/svg" xmlns:xlink="http://www.w3.org/1999/xlink" x="0px" y="0px"
	 viewBox="0 0 443 443" style="enable-background:new 0 0 443 443;" xml:space="preserve">
<style type="text/css">
	.st0{fill:#FFFFFF;}
	.st1{fill:#2D9FFF;}
</style>
<g id="Слой_2">
	<circle class="st0" cx="221.5" cy="221.5" r="221.5"/>
</g>
<g id="Слой_1">
	<g>
		<path class="st1" d="M308.1,39H134.9c-17,0-30.8,13.8-30.8,30.8v303.4c0,17,13.8,30.8,30.8,30.8h173.2c17,0,30.8-13.8,30.8-30.8
			V69.8C338.9,52.8,325.1,39,308.1,39z M134.9,51.4h173.2c10.2,0,18.4,8.3,18.4,18.4v25.2H116.5V69.8
			C116.5,59.7,124.7,51.4,134.9,51.4z M326.5,107.4v228.2H116.5V107.4H326.5z M308.1,391.6H134.9c-10.2,0-18.4-8.3-18.4-18.4v-25.2
			h210.1v25.2C326.5,383.3,318.3,391.6,308.1,391.6z"/>
		<path class="st1" d="M221.5,268.5c25.9,0,47-21.1,47-47s-21.1-47-47-47s-47,21.1-47,47S195.6,268.5,221.5,268.5L221.5,268.5z
			 M221.5,186.9c19.1,0,34.6,15.5,34.6,34.6s-15.5,34.6-34.6,34.6c-19.1,0-34.6-15.5-34.6-34.6S202.4,186.9,221.5,186.9L221.5,186.9
			z"/>
		<path class="st1" d="M221.5,243.2c11.9,0,21.7-9.7,21.7-21.7s-9.7-21.7-21.7-21.7s-21.7,9.7-21.7,21.7S209.6,243.2,221.5,243.2z
			 M221.5,212.2c5.1,0,9.3,4.2,9.3,9.3s-4.2,9.3-9.3,9.3c-5.1,0-9.3-4.2-9.3-9.3S216.4,212.2,221.5,212.2z"/>
		<path class="st1" d="M138.4,240.4c0.6,2.8,3.1,4.8,6,4.8h7.7c1,2.9,2.2,5.8,3.5,8.5l-5.5,5.5c-2,2-2.4,5.2-0.9,7.7
			c6.8,10.7,16,20,26.8,26.8c2.4,1.5,5.6,1.2,7.7-0.9l5.5-5.5c2.8,1.4,5.6,2.5,8.5,3.5v7.7c0,2.9,2,5.4,4.8,6
			c6.2,1.4,12.5,2.1,18.9,2.1c6.4,0,12.8-0.7,18.9-2.1c2.8-0.6,4.8-3.1,4.8-6v-7.7c2.9-1,5.8-2.2,8.5-3.5l5.5,5.5
			c2,2,5.2,2.4,7.7,0.9c10.7-6.8,20-16,26.8-26.8c1.5-2.4,1.2-5.6-0.9-7.7l-5.5-5.5c1.4-2.8,2.5-5.6,3.5-8.5h7.7c2.9,0,5.4-2,6-4.8
			c1.4-6.2,2.1-12.5,2.1-18.9c0-6.4-0.7-12.8-2.1-18.9c-0.6-2.8-3.1-4.8-6-4.8h-7.7c-1-2.9-2.2-5.7-3.5-8.5l5.5-5.5
			c2-2,2.4-5.2,0.9-7.7c-6.8-10.7-16-20-26.8-26.8c-2.4-1.5-5.6-1.2-7.7,0.9l-5.5,5.5c-2.8-1.4-5.6-2.5-8.5-3.5v-7.7
			c0-2.9-2-5.4-4.8-6c-12.3-2.8-25.6-2.8-37.9,0c-2.8,0.6-4.8,3.1-4.8,6v7.7c-2.9,1-5.7,2.2-8.5,3.5l-5.5-5.5c-2-2-5.2-2.4-7.7-0.9
			c-10.8,6.8-20,16-26.8,26.8c-1.5,2.4-1.2,5.6,0.9,7.7l5.5,5.5c-1.4,2.8-2.5,5.6-3.5,8.5h-7.7c-2.9,0-5.4,2-6,4.8
			c-1.4,6.2-2.1,12.5-2.1,18.9C136.2,227.9,137,234.3,138.4,240.4L138.4,240.4z M149.5,210.1h7.2c2.8,0,5.2-1.9,6-4.6
			c1.4-5,3.4-9.8,6-14.4c1.4-2.4,1-5.5-1-7.4l-5.1-5.1c4.5-6.2,9.9-11.6,16.1-16.1l5.1,5.1c2,2,5,2.4,7.4,1c4.5-2.6,9.4-4.6,14.4-6
			c2.7-0.7,4.6-3.2,4.6-6v-7.2c7.5-1.2,15.3-1.2,22.8,0v7.2c0,2.8,1.9,5.2,4.6,6c5,1.4,9.8,3.4,14.4,6c2.4,1.4,5.5,1,7.4-1l5.1-5.1
			c6.2,4.5,11.6,10,16.1,16.1l-5.1,5.1c-2,2-2.4,5-1,7.4c2.6,4.5,4.6,9.4,6,14.4c0.7,2.7,3.2,4.6,6,4.6h7.2
			c0.6,3.7,0.9,7.6,0.9,11.4s-0.3,7.6-0.9,11.4h-7.2c-2.8,0-5.2,1.9-6,4.6c-1.4,5-3.4,9.8-6,14.4c-1.4,2.4-1,5.5,1,7.4l5.1,5.1
			c-4.5,6.2-9.9,11.6-16.1,16.1l-5.1-5.1c-2-2-5-2.4-7.4-1c-4.5,2.6-9.4,4.6-14.4,6c-2.7,0.7-4.6,3.2-4.6,6v7.2
			c-7.5,1.2-15.3,1.2-22.8,0v-7.2c0-2.8-1.9-5.2-4.6-6c-5-1.4-9.8-3.4-14.4-6c-2.4-1.4-5.5-1-7.4,1l-5.1,5.1
			c-6.2-4.5-11.6-10-16.1-16.1l5.1-5.1c2-2,2.4-5,1-7.4c-2.6-4.5-4.6-9.4-6-14.4c-0.7-2.7-3.2-4.6-6-4.6h-7.2
			c-0.6-3.7-0.9-7.6-0.9-11.4C148.6,217.7,148.9,213.9,149.5,210.1L149.5,210.1z"/>
		<path class="st1" d="M195.1,79.4h52.7c3.4,0,6.2-2.8,6.2-6.2c0-3.4-2.8-6.2-6.2-6.2h-52.7c-3.4,0-6.2,2.8-6.2,6.2
			C189,76.6,191.7,79.4,195.1,79.4z"/>
		<path class="st1" d="M221.5,350.9c-10.2,0-18.5,8.3-18.5,18.5c0,10.2,8.3,18.5,18.5,18.5s18.5-8.3,18.5-18.5
			C240,359.2,231.7,350.9,221.5,350.9z M221.5,375.6c-3.4,0-6.2-2.8-6.2-6.2c0-3.4,2.8-6.2,6.2-6.2s6.2,2.8,6.2,6.2
			C227.7,372.9,224.9,375.6,221.5,375.6z"/>
	</g>
</g>
</svg>
