<?xml version="1.0" encoding="utf-8"?>
<!-- Generator: Adobe Illustrator 21.1.0, SVG Export Plug-In . SVG Version: 6.00 Build 0)  -->
<svg version="1.1" xmlns="http://www.w3.org/2000/svg" xmlns:xlink="http://www.w3.org/1999/xlink" x="0px" y="0px"
	 viewBox="0 0 512 512" style="enable-background:new 0 0 512 512;" xml:space="preserve">
<style type="text/css">
	.st0{fill:#FFFFFF;}
	.st1{fill:#2D9FFF;}
</style>
<g id="Слой_2">
	<circle class="st0" cx="256" cy="256" r="256"/>
</g>
<g id="Capa_1">
	<g>
		<g>
			<g>
				<g>
					<path class="st1" d="M195.7,309.6c2.6,2.5,6.7,2.5,9.3,0l39.1-38.8c5.7-5.6,8.9-13.3,8.9-21.3c0-8-3.2-15.7-8.9-21.3h0
						c-11.9-11.7-30.9-11.7-42.8,0l-1,0.9l-1-0.9c-11.9-11.7-30.9-11.7-42.8,0c-5.7,5.6-8.9,13.3-8.9,21.3c0,8,3.2,15.7,8.9,21.3
						L195.7,309.6z M165.8,237.5c6.7-6.6,17.5-6.6,24.3,0l5.6,5.5c2.6,2.5,6.7,2.5,9.3,0l5.6-5.5c6.7-6.6,17.5-6.6,24.3,0
						c3.2,3.2,5,7.5,5,12c0,4.5-1.8,8.8-5,12l-34.5,34.2l-34.5-34.2c-3.2-3.2-5-7.5-5-12C160.8,245,162.6,240.7,165.8,237.5z"/>
					<path class="st1" d="M127.9,357.6h19.8c2.5,0,4.8-1.4,5.9-3.6l7.3-14.6l13.9,27.7c1,2,3,3.4,5.3,3.6c0.2,0,0.4,0,0.6,0
						c2.1,0,4-1,5.3-2.6l15.2-20.3l14.4,14.4c1.5,1.5,3.6,2.2,5.7,1.8c2.1-0.3,3.9-1.7,4.8-3.6l13.2-26.4l7.7,19.3
						c1,2.5,3.4,4.1,6.1,4.1h19.7c3.6,0,6.6-2.9,6.6-6.6s-2.9-6.6-6.6-6.6h-15.3l-11.5-28.8c-1-2.4-3.3-4-5.8-4.1
						c-2.6-0.1-5,1.3-6.2,3.6l-15.7,31.3L205,333.2c-1.3-1.4-3.2-2-5.1-1.9c-1.9,0.1-3.7,1.1-4.8,2.6l-13.4,17.8l-15-30
						c-1.2-2.1-3.5-3.3-5.9-3.3c-2.4,0-4.7,1.3-5.9,3.3l-11.3,22.7h-15.7c-3.6,0-6.6,2.9-6.6,6.6S124.3,357.6,127.9,357.6z"/>
					<path class="st1" d="M430.7,186.8v-72.8c0-32.7-26.5-59.2-59.2-59.2h-72.4c-32.7,0-59.2,26.5-59.2,59.2v19.7H114.7
						c-10.9,0-19.7,8.8-19.8,19.8v276.5c0,10.9,8.8,19.7,19.8,19.8h171.2c10.9,0,19.7-8.8,19.8-19.8V153.6
						c0-10.9-8.8-19.7-19.8-19.7H253v-19.7c0-25.4,20.6-46.1,46.1-46.1h72.4c25.4,0,46.1,20.6,46.1,46.1v72.8
						c-34.9,3.5-60.9,33.8-59.2,68.8s30.7,62.5,65.8,62.5s64-27.5,65.8-62.5C491.7,220.6,465.7,190.3,430.7,186.8z M292.5,430.1
						c0,3.6-2.9,6.6-6.6,6.6H114.7c-3.6,0-6.6-2.9-6.6-6.6v-32.9h184.3V430.1z M292.5,384H108.2V199.6h184.3V384z M285.9,147
						c3.6,0,6.6,2.9,6.6,6.6v32.9H108.2v-32.9c0-3.6,2.9-6.6,6.6-6.6C114.7,147,285.9,147,285.9,147z M424.2,305
						c-29.1,0-52.7-23.6-52.7-52.7s23.6-52.7,52.7-52.7c29.1,0,52.7,23.6,52.7,52.7C476.8,281.4,453.2,304.9,424.2,305z"/>
					<path class="st1" d="M424.2,212.8c-21.8,0-39.5,17.7-39.5,39.5s17.7,39.5,39.5,39.5c21.8,0,39.5-17.7,39.5-39.5
						C463.6,230.5,446,212.8,424.2,212.8z M424.2,278.6c-14.5,0-26.3-11.8-26.3-26.3c0-14.5,11.8-26.3,26.3-26.3
						c14.5,0,26.3,11.8,26.3,26.3C450.5,266.8,438.7,278.6,424.2,278.6z"/>
					<path class="st1" d="M197.8,422.9c0.8,0.3,1.6,0.5,2.5,0.5c2.7,0,5.1-1.6,6.1-4.1c1-2.5,0.5-5.3-1.4-7.2
						c-1.9-1.8-4.7-2.4-7.2-1.4c-0.8,0.3-1.6,0.8-2.2,1.4c-2.5,2.6-2.5,6.8,0,9.3C196.3,422.2,197,422.6,197.8,422.9z"/>
					<path class="st1" d="M169.3,171.4c1.3,1.2,2.9,1.9,4.7,1.9c0.9,0,1.7-0.2,2.5-0.5c1.7-0.6,3-1.9,3.6-3.6
						c0.3-0.8,0.5-1.6,0.5-2.5c0-0.4-0.1-0.9-0.1-1.3c-0.1-0.4-0.2-0.8-0.4-1.2c-0.1-0.4-0.3-0.8-0.6-1.2c-0.3-0.3-0.5-0.7-0.8-1
						c-0.6-0.6-1.4-1.1-2.2-1.4c-1.2-0.5-2.5-0.7-3.8-0.4c-0.4,0.1-0.8,0.2-1.2,0.4c-0.4,0.1-0.8,0.3-1.1,0.6
						c-0.4,0.3-0.7,0.5-1.1,0.8c-0.3,0.3-0.5,0.7-0.8,1c-0.2,0.4-0.4,0.8-0.6,1.2c-0.2,0.4-0.3,0.8-0.4,1.2
						c-0.1,0.4-0.1,0.9-0.1,1.3c0,0.9,0.2,1.7,0.5,2.5C168.3,170,168.7,170.8,169.3,171.4z"/>
					<path class="st1" d="M200.3,173.3h19.8c3.6,0,6.6-2.9,6.6-6.6c0-3.6-2.9-6.6-6.6-6.6h-19.8c-3.6,0-6.6,2.9-6.6,6.6
						C193.7,170.4,196.7,173.3,200.3,173.3z"/>
				</g>
			</g>
		</g>
	</g>
</g>
</svg>
