<svg id="Группа_1" data-name="Группа 1" xmlns="http://www.w3.org/2000/svg" width="125" height="125" viewBox="0 0 175 175">
  <defs>
    <style>
      .cls-1 {
        fill: #ffbc3b;
      }

      .cls-2 {
        fill-rule: evenodd;
      }

      .cls-3 {
        fill: none;
        stroke: #ffbc3b;
        stroke-width: 5px;
      }
    </style>
  </defs>
  <rect id="Прямоугольник_11" data-name="Прямоугольник 11" class="cls-1" x="55.5" y="97.5" width="63" height="12"/>
  <path fill="#000000" class="cls-2" d="M122.358,85.546A17.132,17.132,0,0,0,105.3,70.93h-1.276V62.81a1.1,1.1,0,0,0-1.161-1.16H99.383V60.49a1.1,1.1,0,0,0-1.16-1.16H77.336a1.1,1.1,0,0,0-1.16,1.16v1.16H72.695a1.1,1.1,0,0,0-1.16,1.16v8.12H70.258A17.132,17.132,0,0,0,53.2,85.546l-0.232,1.392V87.17a2.327,2.327,0,0,0,2.321,2.32h0.116v20.331a1.283,1.283,0,0,0-.116.549v2.32a3.49,3.49,0,0,0,3.481,3.48h58.018c0.061,0,.123,0,0.183,0a3.684,3.684,0,0,0,3.414-3.475V89.484a2.326,2.326,0,0,0,2.2-2.314V86.938ZM78.5,61.65H97.063v2.32H78.5V61.65Zm-4.641,2.32h2.321v1.16a1.1,1.1,0,0,0,1.16,1.16H98.223a1.1,1.1,0,0,0,1.16-1.16V63.97H101.7v6.96H73.855V63.97ZM55.522,85.894A14.861,14.861,0,0,1,70.258,73.25H105.3a14.862,14.862,0,0,1,14.737,12.644l0.232,1.276H107.506V84.85a3.419,3.419,0,0,0-3.481-3.48H101.7a3.418,3.418,0,0,0-3.481,3.48v2.32H77.336V84.85a3.418,3.418,0,0,0-3.481-3.48H71.535a3.418,3.418,0,0,0-3.481,3.48v2.32H55.289ZM100.66,91.81V88.33a1.291,1.291,0,0,0-.116-0.548V84.85a1.1,1.1,0,0,1,1.16-1.16h2.321a1.1,1.1,0,0,1,1.16,1.16v6.96a1.1,1.1,0,0,1-1.16,1.16H101.82A1.1,1.1,0,0,1,100.66,91.81Zm-30.17,0V88.33a1.281,1.281,0,0,0-.116-0.548V84.85a1.1,1.1,0,0,1,1.16-1.16h2.321a1.1,1.1,0,0,1,1.16,1.16v6.96a1.1,1.1,0,0,1-1.16,1.16h-2.2A1.1,1.1,0,0,1,70.49,91.81Zm-2.437-2.32v2.32a3.418,3.418,0,0,0,3.481,3.48h2.321a3.418,3.418,0,0,0,3.481-3.48V89.49H98.223v2.32a3.418,3.418,0,0,0,3.481,3.48h2.321a3.419,3.419,0,0,0,3.481-3.48V89.49h10.443v19.72h-3.481a3.491,3.491,0,0,0-3.481,3.48v1.16H64.572v-1.16a3.49,3.49,0,0,0-3.481-3.48H57.61V89.49H68.053Zm-9.283,24.36a1.163,1.163,0,0,1-1.16-1.16v-1.16h3.481a1.163,1.163,0,0,1,1.16,1.16v1.16H58.771Zm58.018,0h-3.481v-1.16a1.162,1.162,0,0,1,1.16-1.16h3.481v1.16A1.162,1.162,0,0,1,116.789,113.85Zm-48.736-2.32h39.453a1.16,1.16,0,0,0,0-2.32H68.053A1.16,1.16,0,1,0,68.053,111.53Zm0-4.64h39.453a1.16,1.16,0,0,0,0-2.32H68.053A1.16,1.16,0,1,0,68.053,106.89Z" transform="translate(-0.5 -0.5)"/>
  <circle id="Эллипс_2" data-name="Эллипс 2" class="cls-3" cx="87.5" cy="87.5" r="85"/>
</svg>
