<svg class="svg-icon" width="88" height="88" viewBox="0 0 1024 1024" version="1.1" xmlns="http://www.w3.org/2000/svg"><path d="M231.228534 280.774989m-82.582122 0a82.582123 82.582123 0 1 0 165.164245 0 82.582123 82.582123 0 1 0-165.164245 0Z" fill="#F9BA48" /><path d="M307.880726 243.909354l-21.175806-25.368687L199.221708 291.458025l-22.38082-22.363202-23.353285 23.356809 43.686993 43.701087zM363.357112 231.225011h247.739321V264.257155h-247.739321zM363.357112 297.2893h280.771466v33.032144h-280.771466zM307.880726 409.070076l-21.175806-25.368687-87.483212 72.917358-22.38082-22.363202-23.353285 23.356809 43.686993 43.701087zM363.357112 396.385733h346.835754v33.032144h-346.835754zM363.357112 462.450022h66.064289v33.032144h-66.064289zM462.453545 462.450022h247.739321v33.032144h-247.739321zM307.880726 574.230798l-21.175806-25.368687-87.483212 72.917358-22.38082-22.363202-23.353285 23.356809 43.686993 43.701087zM363.357112 561.546455h346.835754v33.032144h-346.835754zM363.357112 627.610744h247.739321v33.032144h-247.739321zM644.128578 627.610744h66.064288v33.032144h-66.064288zM644.128578 231.225011h66.064288V264.257155h-66.064288z" fill="#000000" /><path d="M974.450022 759.739321h-132.128578V82.582123C842.321444 37.04533 805.276114 0 759.742845 0H82.585646C37.048853 0 0.003523 37.04533 0.003523 82.582123s37.04533 82.582123 82.5786 82.582122v858.835755h693.675032V924.900043h66.064289v-66.064288h132.128578c27.317143 0 49.546455-22.229312 49.546455-49.549979s-22.229312-49.546455-49.546455-49.546455zM809.2893 82.582123v677.160722h-33.032145V132.128578h-16.517834c-27.317143 0-49.546455-22.229312-49.546455-49.549979s22.229312-49.549978 49.546455-49.549978 49.549978 22.232835 49.549979 49.553502z m-776.253632 0c0-27.317143 22.229312-49.549978 49.546455-49.549979h611.522768c-10.489247 13.840028-16.944169 30.886376-16.944169 49.549979s6.458445 35.706427 16.944169 49.549978H82.585646c-27.317143-0.003523-49.549978-22.232835-49.549978-49.549978zM115.617791 990.964332V165.160722h627.610743v594.578599H278.100707l-148.642888 49.549979 148.642888 49.549978h465.124304v132.128578H115.617791v-0.003524z m118.288549-181.675032l30.354339-10.126335v20.231528l-30.354339-10.105193z m575.38296 82.578599h-33.032145v-33.032144h33.032145v33.032144z m33.032144-66.064289H297.292823V792.771466h545.028621v33.032144z m66.064289 0h-33.032145V792.771466h33.032145v33.032144z m66.064289 0h-33.032145V792.771466h33.032145c9.11511 0 16.51431 7.416817 16.51431 16.517834s-7.395677 16.51431-16.51431 16.51431z" fill="#000000" /></svg>