<svg id="Группа_1" data-name="Группа 1" xmlns="http://www.w3.org/2000/svg" width="125" height="125" viewBox="0 0 102 102">
  <defs>
    <style>
      .cls-1 {
        fill-rule: evenodd;
        fill: #ffffff;
      }

      .cls-2 {
        fill: none;
        stroke: #fff;
        stroke-width: 2px;
      }
    </style>
  </defs>
  <path class="cls-1" d="M80.17,52.447l-3.208-1.861-1.833-7.821a4.565,4.565,0,0,0-4.464-3.536H61.445V37.769a1.107,1.107,0,0,0-1.108-1.106H26.225a1.107,1.107,0,0,0-1.108,1.106V64.137a1.107,1.107,0,0,0,1.108,1.106h3.56a5.549,5.549,0,0,0,10.871,0H63.08a5.549,5.549,0,0,0,10.871,0h5.663a1.107,1.107,0,0,0,1.108-1.106V53.4A1.106,1.106,0,0,0,80.17,52.447ZM35.221,67.465a3.327,3.327,0,1,1,3.332-3.327A3.333,3.333,0,0,1,35.221,67.465Zm24.01-8.4H49.24a1.106,1.106,0,1,0,0,2.212H59.23v1.755H40.656a5.549,5.549,0,0,0-10.871,0H27.333V57.31h31.9v1.755h0Zm0-18.729V55.1h-31.9V38.875h31.9v1.461Zm8.64,1.106h2.794a2.359,2.359,0,0,1,2.307,1.827L74.6,50.2H67.871V41.442h0Zm0.645,26.023a3.334,3.334,0,0,1-3.323-3.106,1.112,1.112,0,0,0,0-.443A3.331,3.331,0,1,1,68.515,67.465Zm9.991-9.684H76.4V56.61h2.107v1.171Zm0-3.383H75.291A1.107,1.107,0,0,0,74.184,55.5v3.384a1.107,1.107,0,0,0,1.108,1.106h3.215v3.038H73.951a5.549,5.549,0,0,0-10.871,0H61.445V41.442h4.21V51.3a1.107,1.107,0,0,0,1.108,1.106h8.931l2.812,1.631V54.4h0Zm-33,4.667H44.567a1.106,1.106,0,1,0,0,2.212H45.5A1.106,1.106,0,1,0,45.5,59.064Z" transform="translate(-2 -2)"/>
  <circle id="Эллипс_1" data-name="Эллипс 1" class="cls-2" cx="51" cy="51" r="50"/>
</svg>
