<svg id="Группа_1" data-name="Группа 1" xmlns="http://www.w3.org/2000/svg" width="125" height="125" viewBox="0 0 175 175">
  <defs>
    <style>
      .cls-1 {
        fill: #ffbc3b;
      }

      .cls-2 {
        fill-rule: evenodd;
      }

      .cls-3 {
        fill: none;
        stroke: #ffbc3b;
        stroke-width: 5px;
      }
    </style>
  </defs>
  <ellipse id="Эллипс_3" data-name="Эллипс 3" class="cls-1" cx="70.953" cy="77.375" rx="10.891" ry="10.875"/>
  <path fill="#000000" id="Forma_1" data-name="Forma 1" class="cls-2" d="M80.091,72.1L72.4,79.787l-2.1-2.1L77.988,70ZM123.01,91.907L111.987,75.375H98.42V87.44H93.5V75.375H89.768A18.479,18.479,0,1,0,62.2,93.731v14.708h7.315a8.65,8.65,0,0,0,17.275,0H98.319a8.65,8.65,0,0,0,17.275,0h7.445V91.907H123.01ZM106.928,78.348h3.435l8.077,12.065H106.928V78.348Zm-50.992-.517a15.507,15.507,0,1,1,15.507,15.5A15.492,15.492,0,0,1,55.936,77.831Zm22.219,35.678a5.516,5.516,0,1,1,5.519-5.515A5.518,5.518,0,0,1,78.155,113.509Zm28.787,0a5.516,5.516,0,1,1,5.519-5.515A5.518,5.518,0,0,1,106.942,113.509Zm13.093-8.057h-4.829v0.014a8.646,8.646,0,0,0-16.528,0H86.419a8.646,8.646,0,0,0-16.528,0H65.177V95.1a18.753,18.753,0,0,0,6.266,1.063A18.335,18.335,0,0,0,89.912,78.348h0.6V90.413H101.4V78.348h2.543V93.386h16.1v12.066ZM69.949,64.286h2.975v2.686H69.949V64.286Zm0,24.418h2.975V91.39H69.949V88.7ZM57.877,76.351h2.688v2.973H57.877V76.351Zm24.446,0h2.688v2.973H82.323V76.351Z" transform="translate(-0.5 -0.5)"/>
  <circle id="Эллипс_2" data-name="Эллипс 2" class="cls-3" cx="87.5" cy="87.5" r="85"/>
</svg>
