<svg width="43" height="40" viewBox="0 0 43 40" fill="none" xmlns="http://www.w3.org/2000/svg">
<rect width="43" height="40" rx="5" fill="#1669B3"/>
<path d="M19 24.88V28H5.992V11.2H18.688V14.32H9.856V17.968H17.656V20.992H9.856V24.88H19ZM30.0867 28.288C28.3747 28.288 26.8227 27.92 25.4307 27.184C24.0547 26.432 22.9667 25.4 22.1667 24.088C21.3827 22.76 20.9907 21.264 20.9907 19.6C20.9907 17.936 21.3827 16.448 22.1667 15.136C22.9667 13.808 24.0547 12.776 25.4307 12.04C26.8227 11.288 28.3827 10.912 30.1107 10.912C31.5667 10.912 32.8787 11.168 34.0467 11.68C35.2307 12.192 36.2227 12.928 37.0227 13.888L34.5267 16.192C33.3907 14.88 31.9827 14.224 30.3027 14.224C29.2627 14.224 28.3347 14.456 27.5187 14.92C26.7027 15.368 26.0627 16 25.5987 16.816C25.1507 17.632 24.9267 18.56 24.9267 19.6C24.9267 20.64 25.1507 21.568 25.5987 22.384C26.0627 23.2 26.7027 23.84 27.5187 24.304C28.3347 24.752 29.2627 24.976 30.3027 24.976C31.9827 24.976 33.3907 24.312 34.5267 22.984L37.0227 25.288C36.2227 26.264 35.2307 27.008 34.0467 27.52C32.8627 28.032 31.5427 28.288 30.0867 28.288Z" fill="white"/>
</svg>
