<svg class="svg-icon" width="88" height="88" viewBox="0 0 1024 1024" version="1.1" xmlns="http://www.w3.org/2000/svg"><path d="M379.874946 957.932188H148.649935v-16.517834c0-36.435777-29.628512-66.064289-66.064289-66.064289h-16.517834V429.417877h396.385733v445.935711h-16.517834c-36.435777 0-66.064289 29.628512-66.064289 66.064289v16.514311h0.003524z" fill="#F9BA48" /><path d="M644.128578 462.450022c27.317143 0 49.546455-22.229312 49.546455-49.549979V49.549978C693.678556 22.229312 671.445721 0 644.128578 0H49.553502C22.236359 0 0.003523 22.229312 0.003523 49.549978v974.450022h528.514311V462.450022h115.610744z m16.517834-297.2893H33.035668V115.614267h627.610744v49.546455zM49.553502 33.032144h594.578599a16.531928 16.531928 0 0 1 16.514311 16.517834v33.032145H33.035668v-33.032145c0-9.101016 7.3992-16.517834 16.517834-16.517834zM33.035668 198.192866h627.610744v214.710701c0 9.101016-7.3992 16.517834-16.514311 16.517834H49.553502a16.531928 16.531928 0 0 1-16.514311-16.517834L33.035668 198.192866z m346.839278 363.353589c0 63.75292-51.875441 115.614267-115.610744 115.614267S148.653458 625.299374 148.653458 561.546455c0-40.713219 21.619759-78.237735 56.484086-99.096433h118.253316c34.864327 20.858698 56.484086 58.383214 56.484086 99.096433z m115.610744 429.417877H33.035668V459.409303c5.186487 1.8498 10.700653 3.040719 16.51431 3.040719h104.413288c-24.146057 26.887285-38.348998 61.903119-38.348999 99.096433 0 81.951429 66.673842 148.646412 148.642888 148.646411s148.642888-66.691459 148.642888-148.646411c0-37.193314-14.202941-72.209149-38.348998-99.096433h120.931121v528.51431h0.003524z" fill="#000000" /><path d="M495.48569 396.385733c11.676643 0 23.022083-3.269742 33.081472-9.167962 9.745804 5.679767 20.908026 9.167962 32.982816 9.167962 36.435777 0 66.064289-29.628512 66.064289-66.064289S597.985755 264.257155 561.549978 264.257155c-12.07479 0-23.237013 3.484671-32.982816 9.167962-10.041772-5.894696-21.40483-9.167962-33.081472-9.167962-36.435777 0-66.064289 29.628512-66.064289 66.064289s29.628512 66.064289 66.064289 66.064289z m99.096433-66.064289c0 18.216127-14.816018 33.032144-33.032145 33.032144s-33.032144-14.816018-33.032144-33.032144 14.816018-33.032144 33.032144-33.032144 33.032144 14.816018 33.032145 33.032144z m-99.096433-33.032144c2.889212 0 5.715001 0.528514 8.487939 1.303668-5.253432 9.446312-8.48794 20.164583-8.487939 31.728476s3.238031 22.27864 8.487939 31.728476c-2.772938 0.775154-5.598728 1.303669-8.487939 1.303668-18.216127 0-33.032144-14.816018-33.032145-33.032144s14.816018-33.032144 33.032145-33.032144zM792.774989 561.546455c-127.502316 0-231.225011 103.722695-231.225011 231.225011s103.719172 231.225011 231.225011 231.225011 231.225011-103.722695 231.225011-231.225011-103.722695-231.225011-231.225011-231.225011z m0 429.417877c-109.286189 0-198.192866-88.906677-198.192866-198.192866s88.906677-198.192866 198.192866-198.192867 198.192866 88.906677 198.192867 198.192867-88.906677 198.192866-198.192867 198.192866z" fill="#000000" /><path d="M817.548217 660.642888h-8.258917v-33.032144h-33.032145v33.032144h-8.258917c-40.977476 0-74.323206 33.34573-74.323205 74.323206s33.34573 74.323206 74.323205 74.323206h49.546455c22.775443 0 41.291061 18.529712 41.291062 41.291061s-18.515618 41.291061-41.291062 41.291061h-49.546455c-22.775443 0-41.291061-18.529712-41.291061-41.291061v-8.258917h-33.032144v8.258917c0 40.977476 33.34573 74.323206 74.323205 74.323206h8.258917v33.032144h33.032145V924.900043h8.258917c40.977476 0 74.323206-33.34573 74.323205-74.323205s-33.34573-74.323206-74.323205-74.323206H768.001762c-22.775443 0-41.291061-18.529712-41.291062-41.291062s18.515618-41.291061 41.291062-41.291061h49.546455c22.775443 0 41.291061 18.529712 41.291061 41.291061v8.258917h33.032144v-8.258917c0-40.973953-33.349253-74.319682-74.323205-74.319682zM776.257155 82.582123v346.835754h33.032145V82.582123l19.819286 26.425715 26.425716-19.819286-62.759313-83.68848-62.762836 83.68848 26.425716 19.819286zM776.257155 462.450022h33.032145v49.549978h-33.032145zM941.417877 181.678556v297.2893h33.032145V181.678556l19.819286 26.425715 26.425716-19.819286-62.762836-83.68848-62.759313 83.68848 26.425716 19.819286zM941.417877 512h33.032145v49.549978h-33.032145z" fill="#000000" /></svg>