<svg id="Группа_1" data-name="Группа 1" xmlns="http://www.w3.org/2000/svg" width="125" height="125" viewBox="0 0 175 175">
  <defs>
    <style>
      .cls-1 {
        fill: none;
        stroke: #ffbc3b;
        stroke-width: 5px;
      }

      .cls-2 {
        fill: #ffbc3b;
      }

      .cls-2, .cls-3 {
        fill-rule: evenodd;
      }
    </style>
  </defs>
  <circle id="Эллипс_2" data-name="Эллипс 2" class="cls-1" cx="87.5" cy="87.5" r="85"/>
  <path id="Фигура_316_1" data-name="Фигура 316 1" class="cls-2" d="M76.31,75.718H63.073C63.509,75.9,61.056,82.729,59,81.865V94.16a10.037,10.037,0,0,1,3.055,2.049,12.839,12.839,0,0,1,2.037,3.074h45.821a4.967,4.967,0,0,1,1.018-3.074,9.552,9.552,0,0,1,3.055-2.049V80.84a8.071,8.071,0,0,1-3.055-2.049,5.715,5.715,0,0,1-1.018-3.074H97.693s-0.3,6.45-3.055,9.221c-2.845,2.862-8.146,2.049-8.146,2.049s-5.64.724-8.146-2.049C75.762,82.078,76.31,75.718,76.31,75.718Z" transform="translate(-0.5 -0.5)"/>
  <path fill="#000000" class="cls-3" d="M50.42,61.9H63.5v-2.38H48.041v56.337h63.833v-2.381H50.42V61.9Zm17.842-2.38V61.9H122.58v51.575h-6.74v2.381h9.119V59.517h-56.7Zm51.146,45.228V70.626h-1.189a4.333,4.333,0,0,1-3.865-2.346,8.829,8.829,0,0,1-.485-1.936l-0.011-1.272H59.142v1.19a4.368,4.368,0,0,1-4.361,4.364h-1.19v34.119h1.19a4.335,4.335,0,0,1,4.346,4.187l0,0.095,0.012,0.058V110.3h54.716v-1.191a4.367,4.367,0,0,1,4.361-4.364h1.189Zm-7.824,3.174H61.408a6.7,6.7,0,0,0-5.437-5.451V72.9a6.761,6.761,0,0,0,5.446-5.449h50.176a6.7,6.7,0,0,0,5.179,5.4q0.129,0.028.258,0.051V102.47h0A6.76,6.76,0,0,0,111.584,107.919ZM86.5,85.7a7.538,7.538,0,1,0-7.533-7.538A7.544,7.544,0,0,0,86.5,85.7Zm0-12.7a5.158,5.158,0,1,1-5.154,5.158A5.162,5.162,0,0,1,86.5,73.006Zm-1.586,3.967h3.172v2.38H84.914v-2.38ZM53.2,65.072h3.172v2.38H53.2v-2.38Zm63.438,0h3.172v2.38h-3.172v-2.38Zm0,42.848h3.172V110.3h-3.172v-2.381Zm-63.438,0h3.172V110.3H53.2v-2.381ZM66.676,74.593H75.4v2.38H66.676v-2.38Zm30.926,0h8.722v2.38H97.6v-2.38ZM71.434,79.354H75.4v2.38H71.434v-2.38Zm26.168,0h3.965v2.38H97.6v-2.38ZM64.3,89.669h37.27v2.38H64.3v-2.38Zm0,6.348H108.7V98.4H64.3v-2.38Zm11.1,6.348h33.3v2.38H75.4v-2.38Zm29.34-12.7H108.7v2.38h-3.965v-2.38ZM64.3,102.365h3.172v2.38H64.3v-2.38Zm5.551,0h3.172v2.38H69.848v-2.38Z" transform="translate(-0.5 -0.5)"/>
</svg>
