<svg id="Группа_1" data-name="Группа 1" xmlns="http://www.w3.org/2000/svg" width="125" height="125" viewBox="0 0 102 102">
  <defs>
    <style>
      .cls-1 {
        fill-rule: evenodd;
        fill: #ffffff;
      }

      .cls-2 {
        fill: none;
        stroke: #fff;
        stroke-width: 2px;
      }
    </style>
  </defs>
  <path class="cls-1" d="M67.33,65.757c-1.047-.458-2.236-0.976-3.588-1.595l-0.061-.027-0.048.047a12.626,12.626,0,0,1-1.491,1.235l-0.138.1,0.153,0.072c1.7,0.789,3.169,1.436,4.413,1.98,4.617,2.014,5.2,2.407,5.2,3.5a1.78,1.78,0,0,1-1.665,1.665H41.894a1.78,1.78,0,0,1-1.665-1.665c0-1.1.584-1.491,5.2-3.5,1.244-.544,2.716-1.191,4.413-1.98l0.153-.072-0.138-.1a12.734,12.734,0,0,1-1.491-1.235l-0.048-.047-0.061.027c-1.353.618-2.541,1.137-3.588,1.595-4.657,2.032-6.4,2.793-6.4,5.313a3.766,3.766,0,0,0,3.624,3.622H70.107A3.766,3.766,0,0,0,73.73,71.07C73.73,68.55,71.988,67.789,67.33,65.757Zm2.46-18.633H67.82a11.82,11.82,0,0,0-23.64,0H42.21a1.969,1.969,0,0,0-1.97,1.969V55a1.969,1.969,0,0,0,1.97,1.969h1.97a1.948,1.948,0,0,0,1.452-.663,3.1,3.1,0,0,0,.184.253c1.364,5.4,5.413,9.321,10.184,9.321,4.887,0,9.007-4.121,10.27-9.719a1.934,1.934,0,0,0,1.55.809h1.97A1.969,1.969,0,0,0,71.76,55V49.093A1.969,1.969,0,0,0,69.79,47.123ZM44.18,55H42.21V49.093h1.97V55ZM56,63.922c-3.187,0-5.972-2.247-7.493-5.581A20.833,20.833,0,0,0,56,59.923a0.985,0.985,0,1,0,0-1.969,16.208,16.208,0,0,1-8.4-2.371,14.548,14.548,0,0,1-.322-3.02C47.282,46.3,51.193,41.2,56,41.2s8.719,5.1,8.719,11.359S60.807,63.922,56,63.922Zm9.826-16.563C64.2,42.6,60.407,39.247,56,39.247s-8.2,3.348-9.826,8.112c0-.08-0.024-0.155-0.024-0.235a9.85,9.85,0,0,1,19.7,0C65.85,47.2,65.828,47.278,65.826,47.358ZM69.79,55H67.82V49.093h1.97V55Z" transform="translate(-5 -4)"/>
  <circle id="Эллипс_1" data-name="Эллипс 1" class="cls-2" cx="51" cy="51" r="50"/>
</svg>
