<svg width="62" height="67" viewBox="0 0 62 67" fill="none" xmlns="http://www.w3.org/2000/svg">
<path d="M43.5938 62.5284H8.71875C7.94796 62.5284 7.20875 62.199 6.66372 61.6126C6.11869 61.0263 5.8125 60.2311 5.8125 59.4019V7.29493C5.8125 6.46575 6.11869 5.67053 6.66372 5.08422C7.20875 4.4979 7.94796 4.16851 8.71875 4.16851H38.75V9.37921C38.75 10.2084 39.0562 11.0036 39.6012 11.5899C40.1463 12.1762 40.8855 12.5056 41.6562 12.5056H46.5V20.8428H48.4375V11.4635C48.4374 11.1871 48.3353 10.9221 48.1537 10.7267L40.4037 2.38958C40.222 2.19412 39.9757 2.08429 39.7188 2.08423H8.71875C7.43458 2.08588 6.20345 2.6354 5.2954 3.61224C4.38735 4.58907 3.87654 5.91347 3.875 7.29493V59.4019C3.87654 60.7834 4.38735 62.1078 5.2954 63.0846C6.20345 64.0615 7.43458 64.611 8.71875 64.6126H43.5938C44.7736 64.6132 45.9129 64.1499 46.7974 63.31L45.5158 61.7467C44.9849 62.2504 44.3015 62.5283 43.5938 62.5284ZM40.6875 9.37921V5.64209L45.1302 10.4213H41.6562C41.3993 10.4213 41.1529 10.3116 40.9712 10.1161C40.7896 9.92067 40.6875 9.6556 40.6875 9.37921Z" fill="black"/>
<path d="M55.2188 47.9382H53.2812C53.2817 47.7336 53.2243 47.5337 53.1166 47.3651L51.8281 45.2808C51.5103 44.7688 51.3417 44.1665 51.3438 43.5508V40.6328C51.3582 39.0245 51.8542 37.4641 52.7581 36.1829C53.48 35.1198 53.9576 33.8879 54.1518 32.588C54.346 31.2881 54.2513 29.9573 53.8754 28.7044C53.4995 27.4515 52.8531 26.3121 51.9892 25.3797C51.1252 24.4472 50.0683 23.7481 48.9049 23.3395C47.7414 22.931 46.5046 22.8247 45.2957 23.0293C44.0867 23.2338 42.94 23.7435 41.9493 24.5166C40.9587 25.2896 40.1523 26.3041 39.5962 27.4769C39.0402 28.6497 38.7502 29.9475 38.75 31.264C38.7428 33.0968 39.3054 34.8796 40.3484 36.3288C41.2092 37.5676 41.6686 39.0758 41.6562 40.6224V43.5508C41.6583 44.1665 41.4897 44.7688 41.1719 45.2808L39.8834 47.3651C39.7757 47.5337 39.7183 47.7336 39.7188 47.9382H37.7812C37.0112 47.9407 36.2733 48.2709 35.7288 48.8567C35.1842 49.4425 34.8773 50.2362 34.875 51.0647V55.2332C34.875 55.5096 34.9771 55.7747 35.1587 55.9701C35.3404 56.1656 35.5868 56.2754 35.8438 56.2754H36.8125V59.4018C36.8125 59.6782 36.9146 59.9432 37.0962 60.1387C37.2779 60.3341 37.5243 60.4439 37.7812 60.4439H55.2188C55.4757 60.4439 55.7221 60.3341 55.9038 60.1387C56.0854 59.9432 56.1875 59.6782 56.1875 59.4018V56.2754H57.1562C57.4132 56.2754 57.6596 56.1656 57.8413 55.9701C58.0229 55.7747 58.125 55.5096 58.125 55.2332V51.0647C58.1227 50.2362 57.8158 49.4425 57.2712 48.8567C56.7267 48.2709 55.9888 47.9407 55.2188 47.9382ZM40.6875 31.264C40.6871 30.2768 40.9041 29.3036 41.3205 28.4239C41.7369 27.5443 42.3411 26.7832 43.0835 26.2029C43.8259 25.6227 44.6854 25.2397 45.5918 25.0855C46.4982 24.9313 47.4257 25.0101 48.2983 25.3155C49.1709 25.6209 49.9639 26.1442 50.6124 26.8427C51.2609 27.5411 51.7465 28.3948 52.0294 29.3339C52.3123 30.273 52.3845 31.2708 52.2401 32.2457C52.0956 33.2206 51.7387 34.1448 51.1984 34.9428C50.0508 36.5845 49.4226 38.5788 49.4062 40.6328V43.5508C49.4046 44.5787 49.6879 45.5838 50.22 46.4376L51.15 47.9382H41.85L42.78 46.4376C43.3121 45.5838 43.5954 44.5787 43.5938 43.5508V40.6224C43.605 38.6202 43.0061 36.6691 41.8888 35.0678C41.1078 33.978 40.6853 32.64 40.6875 31.264ZM54.25 58.3596H38.75V56.2754H54.25V58.3596ZM56.1875 54.1911H36.8125V51.0647C36.8125 50.7883 36.9146 50.5232 37.0962 50.3278C37.2779 50.1323 37.5243 50.0225 37.7812 50.0225H55.2188C55.4757 50.0225 55.7221 50.1323 55.9038 50.3278C56.0854 50.5232 56.1875 50.7883 56.1875 51.0647V54.1911Z" fill="black"/>
<path d="M19.375 58.3596C21.291 58.3596 23.164 57.7484 24.7571 56.6033C26.3502 55.4582 27.5919 53.8306 28.3251 51.9263C29.0583 50.0221 29.2502 47.9267 28.8764 45.9051C28.5026 43.8836 27.5799 42.0267 26.2251 40.5692C24.8703 39.1117 23.1441 38.1192 21.2649 37.7171C19.3857 37.315 17.4379 37.5214 15.6678 38.3101C13.8976 39.0989 12.3846 40.4346 11.3201 42.1484C10.2557 43.8622 9.6875 45.8771 9.6875 47.9383C9.69032 50.7012 10.7119 53.3502 12.528 55.3039C14.3442 57.2577 16.8066 58.3566 19.375 58.3596ZM19.375 39.6011C20.9078 39.6011 22.4062 40.0901 23.6807 41.0062C24.9552 41.9223 25.9485 43.2244 26.5351 44.7478C27.1216 46.2712 27.2751 47.9475 26.9761 49.5647C26.6771 51.182 25.9389 52.6675 24.8551 53.8335C23.7712 54.9994 22.3903 55.7935 20.887 56.1152C19.3836 56.4369 17.8253 56.2718 16.4092 55.6407C14.9931 55.0097 13.7827 53.9411 12.9311 52.5701C12.0795 51.1991 11.625 49.5872 11.625 47.9383C11.6273 45.7279 12.4446 43.6087 13.8975 42.0458C15.3504 40.4828 17.3203 39.6036 19.375 39.6011Z" fill="black"/>
<path d="M18.4062 52.107C18.6631 52.1069 18.9095 51.9971 19.0911 51.8016L24.9036 45.5488L23.5338 44.0752L18.4062 49.5912L16.1849 47.2016L14.8151 48.6752L17.7213 51.8016C17.9029 51.9971 18.1493 52.1069 18.4062 52.107Z" fill="black"/>
<path d="M27.125 17.7164H25.1875C24.9306 17.7164 24.6842 17.6066 24.5025 17.4112C24.3208 17.2157 24.2188 16.9507 24.2188 16.6743H22.2812C22.2813 17.5035 22.5874 18.2987 23.1325 18.885C23.6775 19.4713 24.4167 19.8007 25.1875 19.8007V20.8428H27.125V19.8007C27.8958 19.8007 28.635 19.4713 29.18 18.885C29.7251 18.2987 30.0312 17.5035 30.0312 16.6743C30.0312 15.8451 29.7251 15.0499 29.18 14.4636C28.635 13.8772 27.8958 13.5479 27.125 13.5479H25.1875C24.9306 13.5479 24.6842 13.4381 24.5025 13.2426C24.3208 13.0472 24.2188 12.7821 24.2188 12.5057C24.2188 12.2293 24.3208 11.9643 24.5025 11.7688C24.6842 11.5734 24.9306 11.4636 25.1875 11.4636H27.125C27.3819 11.4636 27.6283 11.5734 27.81 11.7688C27.9917 11.9643 28.0938 12.2293 28.0938 12.5057H30.0312C30.0312 11.6765 29.7251 10.8813 29.18 10.295C28.635 9.70869 27.8958 9.3793 27.125 9.3793V8.33716H25.1875V9.3793C24.4167 9.3793 23.6775 9.70869 23.1325 10.295C22.5874 10.8813 22.2813 11.6765 22.2812 12.5057C22.2813 13.3349 22.5874 14.1301 23.1325 14.7164C23.6775 15.3027 24.4167 15.6321 25.1875 15.6321H27.125C27.3819 15.6321 27.6283 15.7419 27.81 15.9374C27.9917 16.1328 28.0938 16.3979 28.0938 16.6743C28.0938 16.9507 27.9917 17.2157 27.81 17.4112C27.6283 17.6066 27.3819 17.7164 27.125 17.7164Z" fill="black"/>
<path d="M31.9688 13.5479H33.9062V15.6321H31.9688V13.5479Z" fill="black"/>
<path d="M18.4062 13.5479H20.3438V15.6321H18.4062V13.5479Z" fill="black"/>
<path d="M9.6875 22.927H13.5625V25.0113H9.6875V22.927Z" fill="black"/>
<path d="M15.5 22.927H38.75V25.0113H15.5V22.927Z" fill="black"/>
<path d="M9.6875 27.0957H36.8125V29.18H9.6875V27.0957Z" fill="black"/>
<path d="M9.6875 31.2642H36.8125V33.3484H9.6875V31.2642Z" fill="black"/>
<path d="M9.6875 35.4326H13.5625V37.5169H9.6875V35.4326Z" fill="black"/>
<path d="M25.1875 35.4326H36.8125V37.5169H25.1875V35.4326Z" fill="black"/>
<path d="M30.0312 39.6013H37.7812V41.6856H30.0312V39.6013Z" fill="black"/>
</svg>
