<svg width="62" height="62" viewBox="0 0 62 62" fill="none" xmlns="http://www.w3.org/2000/svg">
<path d="M31.8245 59.9329C31.5994 59.7077 31.287 59.5781 30.9685 59.5781C30.6499 59.5781 30.3375 59.7077 30.1124 59.9329C29.8872 60.1582 29.7576 60.4706 29.7576 60.7891C29.7576 61.1075 29.887 61.42 30.1124 61.6452C30.3375 61.8704 30.6499 62 30.9685 62C31.287 62 31.5994 61.8704 31.8245 61.6452C32.0498 61.42 32.1795 61.1075 32.1795 60.7891C32.1795 60.4706 32.0499 60.1582 31.8245 59.9329Z" fill="black"/>
<path d="M55.5288 39.6063L51.4893 38.6413V37.039C53.7315 35.6218 55.2248 33.1226 55.2248 30.2798V25.767C55.2248 21.36 51.6395 17.7748 47.2324 17.7748C44.8551 17.7748 42.7181 18.8194 41.2528 20.4722C39.9694 16.0277 35.8647 12.7678 31.0126 12.7678H31.0125C26.1525 12.7678 22.0422 16.038 20.766 20.4934C19.3003 18.8283 17.1555 17.7748 14.768 17.7748C10.3609 17.7748 6.77556 21.3602 6.77556 25.767V30.2798C6.77556 33.1227 8.26889 35.622 10.5111 37.039V38.6413L6.47161 39.6063C2.66116 40.5165 0 43.8881 0 47.8053V55.9454C0 56.6142 0.542258 57.1563 1.21094 57.1563H10.894V60.7891C10.894 61.4579 11.4362 62.0001 12.1049 62.0001H25.3894C26.058 62.0001 26.6003 61.4579 26.6003 60.7891C26.6003 60.1203 26.058 59.5782 25.3894 59.5782H19.9834V54.2486C19.9834 53.5798 19.4411 53.0377 18.7724 53.0377C18.1038 53.0377 17.5615 53.5798 17.5615 54.2486V59.5782H13.3157V54.1147C13.3157 50.0079 16.105 46.4714 20.0988 45.5144L26.0545 44.0872L29.8867 52.8054C30.0799 53.2451 30.5148 53.5291 30.995 53.5291H30.9952C31.4754 53.5291 31.9104 53.2452 32.1036 52.8055L35.9319 44.1L41.8703 45.5186C45.8678 46.4734 48.6595 50.0107 48.6595 54.1204V55.4717C48.5976 55.6172 48.5632 55.7772 48.5632 55.9453C48.5632 56.1133 48.5976 56.2734 48.6595 56.4189V59.5782H44.4385V54.2486C44.4385 53.5798 43.8962 53.0377 43.2276 53.0377C42.5589 53.0377 42.0166 53.5798 42.0166 54.2486V59.5782H36.0861C35.4174 59.5782 34.8751 60.1203 34.8751 60.7891C34.8751 61.4579 35.4174 62.0001 36.0861 62.0001H49.8704C50.5391 62.0001 51.0813 61.4579 51.0813 60.7891V57.1563H60.7891C61.4577 57.1563 62 56.6142 62 55.9454V47.8053C62 43.8881 59.3388 40.5165 55.5288 39.6063ZM47.2323 20.1967C50.3038 20.1967 52.8028 22.6956 52.8028 25.767V26.0668V26.1885H49.3392C46.7228 26.1885 44.1519 25.5016 41.8861 24.1994C42.5649 21.8887 44.7047 20.1967 47.2323 20.1967ZM41.6617 30.0822C41.6659 29.9585 41.669 26.8262 41.669 26.8262C44.0495 27.9969 46.674 28.6105 49.3393 28.6105H52.8029V30.2799C52.8028 33.3513 50.3038 35.8501 47.2323 35.8501C44.1607 35.8501 41.6617 33.3512 41.6617 30.2798V30.0822ZM22.7777 23.4242C22.7777 18.8837 26.4718 15.1898 31.0125 15.1898C35.553 15.1898 39.2471 18.8838 39.2471 23.4242V23.5821L34.7527 20.9417C34.2428 20.6419 33.591 20.7547 33.2112 21.2079C31.465 23.2917 28.9041 24.4869 26.1852 24.4869H22.7777V23.4242ZM9.19719 26.0669V25.767C9.19719 22.6955 11.6962 20.1967 14.7677 20.1967C17.2953 20.1967 19.4351 21.8887 20.1138 24.1996C17.848 25.5016 15.2772 26.1886 12.6607 26.1886H9.19719V26.0669ZM9.19719 30.2798V28.6104H12.6608C15.3288 28.6104 17.9559 27.9957 20.3383 26.8227V30.2798C20.3383 33.3513 17.8393 35.8501 14.7677 35.8501C11.6962 35.8501 9.19719 33.3512 9.19719 30.2798ZM10.894 54.1147V54.7344H7.26562V49.3544C7.26562 48.6856 6.72337 48.1434 6.05469 48.1434C5.38601 48.1434 4.84375 48.6856 4.84375 49.3544V54.7344H2.42188V47.8053C2.42188 45.0135 4.31845 42.6107 7.03397 41.962L10.8724 41.0449L13.3776 47.0457C11.8108 48.9922 10.894 51.4593 10.894 54.1147ZM14.768 44.0896L12.9289 39.6843C12.931 39.6554 12.9327 39.6264 12.9327 39.5971V38.057C13.5223 38.1961 14.1362 38.272 14.7677 38.272C15.3965 38.272 16.0075 38.1967 16.5948 38.0589V39.5205C16.5935 39.5432 16.5929 39.566 16.5929 39.5888C16.5929 39.6269 16.5965 39.6648 16.6001 39.7027L14.768 44.0896ZM19.5345 43.1592C18.8194 43.3306 18.1361 43.569 17.4873 43.863L18.6667 41.0389L22.5058 41.9588C22.8035 42.0301 23.0937 42.1245 23.3745 42.239L19.5345 43.1592ZM25.5451 40.6353C24.7849 40.1637 23.9508 39.8146 23.0702 39.6037L19.0167 38.6324V37.0442C20.0248 36.4088 20.881 35.5549 21.5193 34.5488C22.4323 36.3324 23.8334 37.826 25.5451 38.8534V40.6353ZM34.0192 42.4329L30.9954 49.3093L27.967 42.4194V39.922C28.9323 40.2105 29.9545 40.3661 31.0124 40.3661C32.0562 40.3661 33.0653 40.2144 34.0192 39.9334V42.4329ZM31.0125 37.9443C26.4717 37.9442 22.7777 34.2502 22.7777 29.7098V26.9089H26.1851C29.2759 26.9089 32.2052 25.6873 34.3694 23.5254L39.2399 26.3868V29.994C39.0893 34.4032 35.4578 37.9443 31.0125 37.9443ZM36.4411 38.8761H36.4412C38.1634 37.8523 39.5744 36.3576 40.4944 34.5701C41.1313 35.5669 41.9825 36.4132 42.9833 37.0442V38.6324L38.9298 39.6037C38.0439 39.8159 37.2051 40.1682 36.4411 40.6441V38.8761ZM42.4329 43.1632L38.6034 42.2482C38.8911 42.1295 39.1886 42.0321 39.4942 41.9588L43.324 41.0412L44.5083 43.8779C43.8511 43.5786 43.1583 43.3365 42.4329 43.1632ZM45.3973 39.7207C45.4022 39.6768 45.4057 39.6326 45.4057 39.5883C45.4057 39.577 45.4056 39.5656 45.4052 39.5544V38.0589C45.9925 38.1968 46.6035 38.272 47.2323 38.272C47.8638 38.272 48.4777 38.1961 49.0673 38.0569V39.597C49.0673 39.619 49.0689 39.6407 49.0701 39.6625L47.2212 44.0896L45.3973 39.7207ZM59.5781 54.7344H57.1562V49.3544C57.1562 48.6856 56.614 48.1434 55.9453 48.1434C55.2766 48.1434 54.7344 48.6856 54.7344 49.3544V54.7344H51.0813V54.1205C51.0813 51.4687 50.1676 49.0049 48.6052 47.0601L51.1183 41.0427L54.966 41.962C57.6816 42.6107 59.5781 45.0135 59.5781 47.8053V54.7344Z" fill="black"/>
<path d="M27.7945 28.3577C27.5694 28.1325 27.257 28.0029 26.9385 28.0029C26.62 28.0029 26.3076 28.1325 26.0824 28.3577C25.8571 28.583 25.7276 28.8954 25.7276 29.2139C25.7276 29.5323 25.857 29.8448 26.0824 30.07C26.3077 30.2952 26.62 30.4248 26.9385 30.4248C27.2582 30.4248 27.5694 30.2952 27.7945 30.07C28.021 29.8448 28.1495 29.5323 28.1495 29.2139C28.1495 28.8954 28.021 28.583 27.7945 28.3577Z" fill="black"/>
<path d="M35.8921 28.3577C35.667 28.1325 35.3545 28.0029 35.0361 28.0029C34.7176 28.0029 34.4052 28.1325 34.1799 28.3577C33.9547 28.583 33.8251 28.8954 33.8251 29.2139C33.8251 29.5323 33.9546 29.8448 34.1799 30.07C34.4053 30.2952 34.7176 30.4248 35.0361 30.4248C35.3545 30.4248 35.667 30.2952 35.8921 30.07C36.1185 29.8448 36.247 29.5323 36.247 29.2139C36.247 28.8954 36.1185 28.583 35.8921 28.3577Z" fill="black"/>
<path d="M33.3307 32.434C32.8577 31.9611 32.0912 31.9611 31.6181 32.434C31.26 32.7921 30.6774 32.7921 30.3193 32.434C29.8463 31.9611 29.0798 31.9611 28.6067 32.434C28.1338 32.9069 28.1338 33.6736 28.6067 34.1466C29.2579 34.7977 30.1132 35.1234 30.9686 35.1234C31.824 35.1234 32.6793 34.7979 33.3306 34.1466C33.8036 33.6736 33.8036 32.9069 33.3307 32.434Z" fill="black"/>
<path d="M50.0697 6.53906H49.2391C48.5705 6.53906 48.0282 7.0812 48.0282 7.75C48.0282 8.4188 48.5705 8.96094 49.2391 8.96094H50.0697C50.7384 8.96094 51.2807 8.4188 51.2807 7.75C51.2807 7.0812 50.7384 6.53906 50.0697 6.53906Z" fill="black"/>
<path d="M55.9453 6.53906H55.1147C54.4461 6.53906 53.9038 7.0812 53.9038 7.75C53.9038 8.4188 54.4459 8.96094 55.1147 8.96094H55.9453C56.614 8.96094 57.1562 8.4188 57.1562 7.75C57.1562 7.0812 56.614 6.53906 55.9453 6.53906Z" fill="black"/>
<path d="M52.5924 9.06152C51.9237 9.06152 51.3814 9.60366 51.3814 10.2725V11.103C51.3814 11.7718 51.9236 12.314 52.5924 12.314C53.261 12.314 53.8033 11.7718 53.8033 11.103V10.2725C53.8033 9.60366 53.261 9.06152 52.5924 9.06152Z" fill="black"/>
<path d="M52.5924 3.18604C51.9237 3.18604 51.3814 3.72817 51.3814 4.39697V5.22755C51.3814 5.89635 51.9236 6.43849 52.5924 6.43849C53.261 6.43849 53.8033 5.89635 53.8033 5.22755V4.39697C53.8033 3.72817 53.261 3.18604 52.5924 3.18604Z" fill="black"/>
<path d="M6.81782 6.53906H5.98736C5.31868 6.53906 4.77642 7.0812 4.77642 7.75C4.77642 8.4188 5.31868 8.96094 5.98736 8.96094H6.81782C7.4865 8.96094 8.02876 8.4188 8.02876 7.75C8.02876 7.0812 7.4865 6.53906 6.81782 6.53906Z" fill="black"/>
<path d="M12.6934 6.53906H11.8629C11.1943 6.53906 10.652 7.0812 10.652 7.75C10.652 8.4188 11.1941 8.96094 11.8629 8.96094H12.6934C13.3621 8.96094 13.9043 8.4188 13.9043 7.75C13.9043 7.0812 13.3621 6.53906 12.6934 6.53906Z" fill="black"/>
<path d="M9.34045 9.06152C8.67177 9.06152 8.12951 9.60366 8.12951 10.2725V11.103C8.12951 11.7718 8.67165 12.314 9.34045 12.314C10.0091 12.314 10.5514 11.7718 10.5514 11.103V10.2725C10.5514 9.60366 10.0091 9.06152 9.34045 9.06152Z" fill="black"/>
<path d="M9.34045 3.18604C8.67177 3.18604 8.12951 3.72817 8.12951 4.39697V5.22755C8.12951 5.89635 8.67165 6.43849 9.34045 6.43849C10.0091 6.43849 10.5514 5.89635 10.5514 5.22755V4.39697C10.5514 3.72817 10.0091 3.18604 9.34045 3.18604Z" fill="black"/>
<path d="M31 4.61206C30.3313 4.61206 29.7891 5.1542 29.7891 5.823V9.00898C29.7891 9.67778 30.3313 10.2199 31 10.2199C31.6687 10.2199 32.2109 9.67778 32.2109 9.00898V5.823C32.2109 5.1542 31.6687 4.61206 31 4.61206Z" fill="black"/>
<path d="M31.856 0.354805C31.6309 0.12957 31.3185 0 31 0C30.6815 0 30.3691 0.12957 30.1439 0.354805C29.9185 0.580039 29.7891 0.892461 29.7891 1.21094C29.7891 1.52941 29.9185 1.84184 30.1439 2.06707C30.3692 2.2923 30.6815 2.42188 31 2.42188C31.3185 2.42188 31.6309 2.2923 31.856 2.06707C32.0814 1.84184 32.2109 1.52941 32.2109 1.21094C32.2109 0.892461 32.0814 0.580039 31.856 0.354805Z" fill="black"/>
<path d="M26.7563 4.85818L24.9842 3.0861C24.5112 2.61323 23.7447 2.61323 23.2716 3.0861C22.7987 3.55897 22.7987 4.32573 23.2716 4.79873L25.0438 6.57081C25.2803 6.80731 25.5901 6.9255 25.9 6.9255C26.2099 6.9255 26.5198 6.80731 26.7563 6.57081C27.2291 6.09794 27.2291 5.33118 26.7563 4.85818Z" fill="black"/>
<path d="M38.7282 3.01945C38.2552 2.54658 37.4887 2.54658 37.0156 3.01945L35.1843 4.85075C34.7114 5.32362 34.7114 6.09039 35.1843 6.56338C35.4209 6.79987 35.7306 6.91806 36.0406 6.91806C36.3506 6.91806 36.6604 6.79987 36.8969 6.56338L38.7282 4.73208C39.2011 4.25921 39.2011 3.49244 38.7282 3.01945Z" fill="black"/>
</svg>
