<svg width="60" height="56" viewBox="0 0 60 56" fill="none" xmlns="http://www.w3.org/2000/svg">
<path d="M22.9688 37.8535C23.616 37.8535 24.1406 37.3638 24.1406 36.7598C24.1406 36.1557 23.616 35.666 22.9688 35.666C22.3215 35.666 21.7969 36.1557 21.7969 36.7598C21.7969 37.3638 22.3215 37.8535 22.9688 37.8535Z" fill="black"/>
<path d="M5.85938 11.6035H15.9375C16.5847 11.6035 17.1094 11.1138 17.1094 10.5098C17.1094 9.90569 16.5847 9.41602 15.9375 9.41602H5.85938C5.21215 9.41602 4.6875 9.90569 4.6875 10.5098C4.6875 11.1138 5.21215 11.6035 5.85938 11.6035Z" fill="black"/>
<path d="M34.6875 11.6035H44.7656C45.4129 11.6035 45.9375 11.1138 45.9375 10.5098C45.9375 9.90569 45.4129 9.41602 44.7656 9.41602H34.6875C34.0403 9.41602 33.5156 9.90569 33.5156 10.5098C33.5156 11.1138 34.0403 11.6035 34.6875 11.6035Z" fill="black"/>
<path d="M5.85938 15.9785H25.3125C25.9597 15.9785 26.4844 15.4888 26.4844 14.8848C26.4844 14.2807 25.9597 13.791 25.3125 13.791H5.85938C5.21215 13.791 4.6875 14.2807 4.6875 14.8848C4.6875 15.4888 5.21215 15.9785 5.85938 15.9785Z" fill="black"/>
<path d="M5.85938 20.3535H25.3125C25.9597 20.3535 26.4844 19.8638 26.4844 19.2598C26.4844 18.6557 25.9597 18.166 25.3125 18.166H5.85938C5.21215 18.166 4.6875 18.6557 4.6875 19.2598C4.6875 19.8638 5.21215 20.3535 5.85938 20.3535Z" fill="black"/>
<path d="M5.85938 24.7285H25.3125C25.9597 24.7285 26.4844 24.2388 26.4844 23.6348C26.4844 23.0307 25.9597 22.541 25.3125 22.541H5.85938C5.21215 22.541 4.6875 23.0307 4.6875 23.6348C4.6875 24.2388 5.21215 24.7285 5.85938 24.7285Z" fill="black"/>
<path d="M5.85938 29.1035H25.3125C25.9597 29.1035 26.4844 28.6138 26.4844 28.0098C26.4844 27.4057 25.9597 26.916 25.3125 26.916H5.85938C5.21215 26.916 4.6875 27.4057 4.6875 28.0098C4.6875 28.6138 5.21215 29.1035 5.85938 29.1035Z" fill="black"/>
<path d="M5.85938 33.4785H25.3125C25.9597 33.4785 26.4844 32.9888 26.4844 32.3848C26.4844 31.7807 25.9597 31.291 25.3125 31.291H5.85938C5.21215 31.291 4.6875 31.7807 4.6875 32.3848C4.6875 32.9888 5.21215 33.4785 5.85938 33.4785Z" fill="black"/>
<path d="M5.85938 37.8535H18.2812C18.9285 37.8535 19.4531 37.3638 19.4531 36.7598C19.4531 36.1557 18.9285 35.666 18.2812 35.666H5.85938C5.21215 35.666 4.6875 36.1557 4.6875 36.7598C4.6875 37.3638 5.21215 37.8535 5.85938 37.8535Z" fill="black"/>
<path d="M58.8281 2.85352H34.6875C32.7728 2.85352 31.0699 3.71517 30 5.04484C28.9301 3.71528 27.2272 2.85352 25.3125 2.85352H1.17188C0.524648 2.85352 0 3.34319 0 3.94727V43.3223C0 43.9263 0.524648 44.416 1.17188 44.416H10.3125C10.9597 44.416 11.4844 43.9263 11.4844 43.3223C11.4844 42.7182 10.9597 42.2285 10.3125 42.2285H2.34375V5.04102H25.3125C27.251 5.04102 28.8281 6.51298 28.8281 8.32227V42.2285H20.8594C20.2121 42.2285 19.6875 42.7182 19.6875 43.3223C19.6875 43.9263 20.2121 44.416 20.8594 44.416H45.653L54.6629 52.8259C55.1207 53.2531 55.8627 53.253 56.3203 52.826L59.6355 49.7318C60.0929 49.3049 60.093 48.6119 59.6354 48.1849L55.4484 44.277C58.0516 43.7207 60 41.5431 60 38.9473V3.94727C60 3.9442 59.9995 3.94125 59.9995 3.93808C59.9944 3.3422 59.4708 2.85352 58.8281 2.85352ZM38.2863 34.4463L37.4579 32.1268L39.9431 32.8999L39.9469 32.9034C39.9487 32.9052 39.9493 32.9057 39.9493 32.9057C40.0323 32.9832 41.1144 33.993 52.1781 44.3181L50.5204 45.8653C49.1143 44.553 46.1021 41.7415 38.2863 34.4463ZM57.1497 48.9585L55.4919 50.5057L52.1776 47.4122L53.8354 45.865L57.1497 48.9585ZM54.1406 42.2285H53.2526L41.4048 31.1706C41.2761 31.0505 41.1193 30.96 40.9467 30.9063L35.9756 29.3598C35.5543 29.2289 35.0902 29.3311 34.7764 29.624C34.4626 29.917 34.353 30.3503 34.4933 30.7433L36.1504 35.383C36.2079 35.5441 36.3048 35.6904 36.4335 35.8105L43.3095 42.2285H31.1719V8.32227C31.1719 6.51298 32.749 5.04102 34.6875 5.04102H57.2746L54.596 13.791H34.6875C34.0403 13.791 33.5156 14.2807 33.5156 14.8848C33.5156 15.4888 34.0403 15.9785 34.6875 15.9785H53.9263L53.2567 18.166H34.6875C34.0403 18.166 33.5156 18.6557 33.5156 19.2598C33.5156 19.8638 34.0403 20.3535 34.6875 20.3535H52.5871L51.9175 22.541H34.6875C34.0403 22.541 33.5156 23.0307 33.5156 23.6348C33.5156 24.2388 34.0403 24.7285 34.6875 24.7285H51.2477L48.3264 34.2718C48.2254 34.6018 48.2961 34.9569 48.5176 35.2309C48.7391 35.5049 49.0855 35.666 49.4531 35.666H53.8898C55.8266 35.666 57.6562 36.9751 57.6562 38.9473C57.6562 40.7565 56.0791 42.2285 54.1406 42.2285ZM57.6562 34.6396C56.6082 33.9113 55.2923 33.4785 53.8898 33.4785H51.0067C51.4908 31.8971 57.3545 12.7422 57.6562 11.7566V34.6396Z" fill="black"/>
<path d="M15.5859 44.416C16.2331 44.416 16.7578 43.9263 16.7578 43.3223C16.7578 42.7182 16.2331 42.2285 15.5859 42.2285C14.9387 42.2285 14.4141 42.7182 14.4141 43.3223C14.4141 43.9263 14.9387 44.416 15.5859 44.416Z" fill="black"/>
</svg>
