<svg width="62" height="62" viewBox="0 0 62 62" fill="none" xmlns="http://www.w3.org/2000/svg">
<g clip-path="url(#clip0)">
<path d="M57.8208 15.201L55.7497 7.95257C55.6308 7.53589 55.2499 7.24854 54.8164 7.24854H53.7809C53.3474 7.24854 52.9665 7.53589 52.8475 7.95257L50.7765 15.201C50.6293 15.7165 50.9277 16.2538 51.4433 16.4012C51.9589 16.5483 52.4961 16.2502 52.6434 15.7344L53.034 14.3675H55.5635L55.954 15.7345C56.0759 16.1609 56.4646 16.4388 56.8871 16.4388C56.9753 16.4388 57.0652 16.4266 57.1542 16.4012C57.6694 16.2538 57.9681 15.7165 57.8208 15.201ZM53.5885 12.426L54.2986 9.94081L55.0087 12.426H53.5885Z" fill="black"/>
<path d="M57.9228 2.07095H52.3038C52.3195 1.62786 52.1868 1.19096 51.9152 0.820289C51.5331 0.298981 50.9433 0 50.2969 0H38.2484C36.0002 0 34.1712 1.82912 34.1712 4.07723V15.4677C34.1712 17.3816 35.4966 18.9916 37.2776 19.4282V23.7516C37.2776 24.1442 37.5141 24.4982 37.8769 24.6484C37.997 24.698 38.1231 24.7223 38.2483 24.7223C38.5009 24.7223 38.7493 24.6236 38.9349 24.4379L43.8278 19.5449H44.9028C44.887 19.988 45.0198 20.4249 45.2914 20.7955C45.6734 21.3169 46.2633 21.616 46.9095 21.616H57.9227C60.1709 21.616 61.9999 19.7868 61.9999 17.5387V6.14817C62 3.90007 60.1709 2.07095 57.9228 2.07095ZM45.4395 17.6034H43.4259C43.1685 17.6034 42.9216 17.7056 42.7396 17.8877L39.2192 21.408V18.5742C39.2192 18.0381 38.7846 17.6034 38.2484 17.6034C37.0708 17.6034 36.1127 16.6453 36.1127 15.4677V4.07723C36.1127 2.89959 37.0708 1.9415 38.2484 1.9415H50.2969C50.3076 1.9415 50.3296 1.9415 50.3491 1.96789C50.3685 1.99441 50.3619 2.01548 50.3587 2.02566L47.0306 12.5646C46.987 12.5385 46.9416 12.5146 46.8931 12.4952C46.0699 12.166 45.3513 11.732 44.7386 11.199C45.8284 9.68823 46.2318 8.10335 46.3806 7.11886H47.5679C48.104 7.11886 48.5387 6.68425 48.5387 6.14805C48.5387 5.61197 48.1041 5.17724 47.5679 5.17724H44.3966V5.11258C44.3966 4.5765 43.962 4.14177 43.4258 4.14177C42.8896 4.14177 42.455 4.57638 42.455 5.11258V5.17724H39.2838C38.7477 5.17724 38.313 5.61185 38.313 6.14805C38.313 6.68425 38.7476 7.11886 39.2838 7.11886H44.4082C44.2781 7.785 44.0026 8.71294 43.4235 9.64633C43.2681 9.39433 43.1256 9.13107 42.9991 8.85389C42.7764 8.366 42.2002 8.15155 41.7127 8.37424C41.2249 8.59705 41.0102 9.17297 41.233 9.66062C41.4814 10.2046 41.7784 10.7135 42.1196 11.1859C41.5462 11.6891 40.838 12.1434 39.9586 12.4952C39.4608 12.6944 39.2188 13.2593 39.4178 13.7571C39.5697 14.1367 39.9342 14.3677 40.3195 14.3677C40.4395 14.3677 40.5616 14.3452 40.6798 14.298C41.802 13.849 42.7061 13.2715 43.4355 12.6317C44.2209 13.3224 45.1378 13.8844 46.1716 14.298C46.267 14.336 46.3647 14.3574 46.4621 14.3644L45.4395 17.6034ZM60.0585 17.5386C60.0585 18.7162 59.1004 19.6743 57.9228 19.6743H46.9098C46.8991 19.6743 46.8771 19.6743 46.8576 19.6478C46.8383 19.6213 46.8449 19.6004 46.8481 19.5901L51.7672 4.01256H57.9227C59.1003 4.01256 60.0584 4.97066 60.0584 6.14829V17.5386H60.0585Z" fill="black"/>
<path d="M39.7519 49.8822L30.6763 47.0898C30.2118 46.9469 29.8997 46.5243 29.8997 46.0382V42.4998L30.4283 42.0594C31.3779 41.2681 32.0085 40.1599 32.2038 38.9394L32.3246 38.1838H33.0708C34.7481 38.1838 36.1126 36.8193 36.1126 35.142V33.0711C36.1126 31.5819 35.0365 30.34 33.6212 30.0802L34.5655 24.1783C34.9943 21.4982 34.2303 18.7767 32.4691 16.7115C30.708 14.6462 28.1413 13.4614 25.4271 13.4614H17.9339C15.2195 13.4614 12.6528 14.6458 10.8918 16.7112C9.13071 18.7765 8.36661 21.4982 8.7954 24.1781L9.73969 30.08C8.32447 30.3398 7.24843 31.5818 7.24843 33.071V35.1419C7.24843 36.8192 8.61291 38.1837 10.2902 38.1837H11.0364L11.1572 38.9393C11.3525 40.1599 11.9831 41.2678 12.9327 42.0593L13.4613 42.4998V46.0381C13.4613 46.5241 13.1492 46.9469 12.6847 47.0896L3.60908 49.8821C1.45046 50.5465 0 52.5103 0 54.7688V58.9582C0 60.6354 1.36448 61.9999 3.04175 61.9999H40.3194C41.9966 61.9999 43.3611 60.6354 43.3611 58.9582V54.7688C43.3611 52.5103 41.9107 50.5465 39.7519 49.8822ZM34.1712 33.0709V35.1418C34.1712 35.7485 33.6776 36.2421 33.0709 36.2421H32.6354L33.3142 31.9987C33.8043 32.11 34.1712 32.548 34.1712 33.0709ZM10.2902 36.2421C9.6835 36.2421 9.18993 35.7485 9.18993 35.1418V33.0709C9.18993 32.548 9.55684 32.11 10.0467 31.9987L10.7256 36.2421H10.2902ZM10.7128 23.8715C10.3739 21.7536 10.9776 19.6029 12.3692 17.9708C13.761 16.3389 15.7892 15.4028 17.934 15.4028H25.4273C27.5721 15.4028 29.6003 16.3387 30.992 17.9708C32.3836 19.6028 32.9875 21.7536 32.6486 23.8715L31.6635 30.0291H30.8419C30.81 30.0291 30.7832 30.0063 30.778 29.975L30.031 25.4925C29.8691 24.5212 29.0368 23.8161 28.0521 23.8161H15.3095C14.3248 23.8161 13.4925 24.5212 13.3306 25.4926L12.5836 29.975C12.5782 30.0063 12.5515 30.0291 12.5198 30.0291H11.6981L10.7128 23.8715ZM13.0744 38.6326L12.0085 31.9707H12.5195C13.5043 31.9707 14.3365 31.2657 14.4984 30.2943L15.2455 25.8119C15.2508 25.7805 15.2776 25.7578 15.3093 25.7578H28.0517C28.0836 25.7578 28.1103 25.7805 28.1155 25.8119L28.8626 30.2944C29.0245 31.2657 29.8568 31.9707 30.8415 31.9707H31.3525L30.6064 36.634C30.38 36.8888 28.0219 39.3486 21.6806 39.3486C21.1445 39.3486 20.7098 39.7832 20.7098 40.3194C20.7098 40.8556 21.1444 41.2902 21.6806 41.2902C25.7505 41.2902 28.4136 40.3569 30.0365 39.4559C29.8406 39.882 29.5514 40.263 29.1855 40.5679L25.0296 44.0312C24.6466 44.3504 24.161 44.5261 23.6623 44.5261H19.6987C19.2001 44.5261 18.7144 44.3503 18.3314 44.0312L14.1755 40.5679C13.5867 40.0769 13.1955 39.3895 13.0744 38.6326ZM13.2556 48.9455C14.54 48.5504 15.4029 47.3821 15.4029 46.0383V44.118L17.0885 45.5228C17.8198 46.1322 18.7469 46.4678 19.6987 46.4678H23.6623C24.6142 46.4678 25.5412 46.1322 26.2725 45.5228L27.9581 44.1179V46.0382C27.9581 47.382 28.821 48.5503 30.1054 48.9454L30.5954 49.0962C27.1537 54.3766 22.579 55.6839 21.6782 55.8956C20.7684 55.6869 16.2193 54.4043 12.7652 49.0963L13.2556 48.9455ZM7.24843 60.0584H3.04175C2.43507 60.0584 1.9415 59.5648 1.9415 58.9582V54.7688C1.9415 54.2194 2.0816 53.6992 2.33045 53.2435L6.47997 56.7013C6.96834 57.1083 7.24843 57.7064 7.24843 58.342V60.0584ZM34.1712 58.3422V60.0583H9.18993V58.3422C9.18993 57.1284 8.65518 55.9868 7.72288 55.2099L3.7556 51.9038C3.89159 51.8398 4.03279 51.7831 4.18004 51.7378L10.841 49.6884C15.1509 56.7076 21.2559 57.8006 21.5208 57.8447C21.5736 57.8535 21.6269 57.8579 21.6804 57.8579C21.7339 57.8579 21.7872 57.8535 21.84 57.8447C22.1048 57.8005 28.2101 56.7076 32.5197 49.6884L39.1807 51.7379C39.328 51.7832 39.4691 51.8399 39.6052 51.904L35.6381 55.2101C34.706 55.9869 34.1712 57.1284 34.1712 58.3422ZM41.4196 58.9582C41.4196 59.5648 40.9261 60.0584 40.3194 60.0584H36.1127V58.3423C36.1127 57.7065 36.3928 57.1085 36.8812 56.7016L41.0307 53.2437C41.2795 53.6993 41.4196 54.2195 41.4196 54.769V58.9582Z" fill="black"/>
</g>
<defs>
<clipPath id="clip0">
<rect width="62" height="62" fill="white"/>
</clipPath>
</defs>
</svg>
