<svg height="512" viewBox="0 0 512 512" width="512" xmlns="http://www.w3.org/2000/svg"><g id="flat"><path d="m72 104h368a0 0 0 0 1 0 0v362a22 22 0 0 1 -22 22h-324a22 22 0 0 1 -22-22v-362a0 0 0 0 1 0 0z" fill="#029532"/><path d="m72 24h368v80h-368z" fill="#fbb540"/><rect fill="#026a23" height="32" rx="16" width="192" x="160" y="328"/><rect fill="#a6deff" height="160" rx="10" width="240" x="136" y="136"/><path d="m376 146v140a10.005 10.005 0 0 1 -8.17 9.83 9.964 9.964 0 0 0 .17-1.83v-140a10 10 0 0 0 -10-10h-220a9.964 9.964 0 0 0 -1.83.17 10.005 10.005 0 0 1 9.83-8.17h220a10 10 0 0 1 10 10z" fill="#92d1f7"/><path d="m308 456h-104a12 12 0 0 1 -12-12v-116h128v116a12 12 0 0 1 -12 12z" fill="#79a73a"/><path d="m272 424h-32a16 16 0 0 0 -16-16v-80h64v80a16 16 0 0 0 -16 16z" fill="#aac16b"/><path d="m288 328a32 32 0 0 1 -64 0z" fill="#79a73a"/><path d="m286 264h-60a10 10 0 0 1 -10-10v-19.775a44 44 0 0 1 12.887-31.112l11.113-11.113h32l11.113 11.113a44 44 0 0 1 12.887 31.112v19.775a10 10 0 0 1 -10 10z" fill="#79a73a"/><path d="m240 192-8-24h48l-8 24z" fill="#79a73a"/><path d="m272 200h-28.687a35.085 35.085 0 0 1 -24.97-10.343 8 8 0 0 1 11.314-11.314 19.187 19.187 0 0 0 13.656 5.657h28.687a8 8 0 0 1 0 16z" fill="#668d31"/><path d="m264 248a7.976 7.976 0 0 1 -5.657-2.343l-16-16a8 8 0 0 1 11.314-11.314l10.343 10.344 34.343-34.344a8 8 0 0 1 11.314 11.314l-40 40a7.976 7.976 0 0 1 -5.657 2.343z" fill="#ea9d2d"/><g fill="#d18d28"><path d="m216.006 88a8 8 0 0 1 -7.161-4.424l-16-32a8 8 0 0 1 14.31-7.156l16 32a8 8 0 0 1 -7.149 11.58z"/><path d="m175.994 88a8 8 0 0 1 -7.149-11.58l8-16a8 8 0 0 1 14.31 7.156l-8 16a8 8 0 0 1 -7.161 4.424z"/><path d="m256 88a8 8 0 0 1 -8-8v-24h-8a8 8 0 0 1 0-16h16a8 8 0 0 1 8 8v32a8 8 0 0 1 -8 8z"/><path d="m320 88a8 8 0 0 1 -8-8v-8a8 8 0 0 1 16 0v8a8 8 0 0 1 -8 8z"/><path d="m288 88a8 8 0 0 1 -8-8v-32a8 8 0 0 1 13.657-5.657l10.343 10.344 10.343-10.344a8 8 0 0 1 11.314 11.314l-16 16a8 8 0 0 1 -11.314 0l-2.343-2.344v12.687a8 8 0 0 1 -8 8z"/></g><path d="m168 184a8 8 0 0 1 -8-8v-8a8 8 0 0 1 16 0v8a8 8 0 0 1 -8 8z" fill="#92d1f7"/><path d="m168 240a8 8 0 0 1 -8-8v-32a8 8 0 0 1 16 0v32a8 8 0 0 1 -8 8z" fill="#92d1f7"/><path d="m72 104h368v8h-368z" fill="#027e2a"/></g></svg>