<svg width="60" height="60" viewBox="0 0 60 60" fill="none" xmlns="http://www.w3.org/2000/svg">
<g clip-path="url(#clip0)">
<path d="M41.0748 5.83252H54.4241V8.91313H41.0748V5.83252Z" fill="#FFB655"/>
<path d="M41.0748 24.3164H54.4241V27.397H41.0748V24.3164Z" fill="#FFB655"/>
<path d="M13.3493 15.0742H26.6986V18.1548H13.3493V15.0742Z" fill="#FF9811"/>
<path d="M43.1285 15.0742H56.4778V18.1548H43.1285V15.0742Z" fill="#FF9811"/>
<path d="M41.0748 11.9938V2.75195H24.6449V11.9938H26.6986V21.2356H24.6449V30.4774H41.0748V21.2356H43.1285V11.9938H41.0748Z" fill="#E6E7E8"/>
<path d="M11.2955 5.83252H24.6448V8.91313H11.2955V5.83252Z" fill="#FFB655"/>
<path d="M11.2955 24.3164H24.6448V27.397H11.2955V24.3164Z" fill="#FFB655"/>
<path d="M41.0748 21.2354V24.316H54.4241V21.2354H41.0748Z" fill="#FF9811"/>
<path d="M41.0748 27.3965H54.4241V30.4771H41.0748V27.3965Z" fill="#FF9811"/>
<path d="M24.6448 21.2354H11.2955V24.316H24.6448V21.2354Z" fill="#FF9811"/>
<path d="M11.2955 27.3965H24.6448V30.4771H11.2955V27.3965Z" fill="#FF9811"/>
<path d="M43.1285 11.9937V15.0743H56.4778V11.9937H43.1285Z" fill="#FFB655"/>
<path d="M43.1285 21.2354H56.4778V18.1548H43.1285V21.2354Z" fill="#FFB655"/>
<path d="M26.6986 11.9937H13.3493V15.0743H26.6986V11.9937Z" fill="#FFB655"/>
<path d="M26.6986 21.2354V18.1548H13.3493V21.2354H26.6986Z" fill="#FFB655"/>
<path d="M41.0748 2.75195H54.4241V5.83256H41.0748V2.75195Z" fill="#FF9811"/>
<path d="M41.0748 11.9937H54.4241V8.91309H41.0748V11.9937Z" fill="#FF9811"/>
<path d="M11.2955 2.75195H24.6448V5.83256H11.2955V2.75195Z" fill="#FF9811"/>
<path d="M24.6448 11.9937V8.91309H11.2955V11.9937H24.6448Z" fill="#FF9811"/>
<path d="M36.9673 15.0743V14.0474C36.9673 12.9132 36.0477 11.9937 34.9136 11.9937V10.9668H32.8598V11.9937C31.7257 11.9937 30.8061 12.9132 30.8061 14.0474V16.1011C30.8061 17.2353 31.7257 18.1549 32.8598 18.1549H34.9136V20.2086H32.8598V19.1818H30.8061V20.2086C30.8061 21.3428 31.7257 22.2624 32.8598 22.2624V23.2892H34.9136V22.2624C36.0477 22.2624 36.9673 21.3428 36.9673 20.2086V18.1549C36.9673 17.0207 36.0477 16.1011 34.9136 16.1011H32.8598V14.0474H34.9136V15.0743H36.9673Z" fill="#FF5023"/>
<path d="M59.6201 39.9554C59.1613 38.9682 58.3285 38.2046 57.3051 37.8325C56.2823 37.4605 55.1531 37.5116 54.1673 37.9739L40.2154 44.4696C39.6718 44.7228 39.0802 44.8536 38.481 44.8536H35.9404C38.2087 44.8536 40.0479 43.015 40.0479 40.7462C40.0479 38.4778 38.2087 36.6387 35.9404 36.6387H20.5374C17.9271 36.6362 15.6001 38.2833 14.7357 40.7462H10.2687V54.0955H38.111C38.7107 54.0955 39.3023 53.9641 39.8458 53.7114L57.638 45.4187C59.0806 44.7383 60.0006 43.2863 60.0001 41.6908C59.9996 41.0921 59.8698 40.5 59.6201 39.9554Z" fill="#FFDAAA"/>
<path d="M39.4934 42.7998C38.7633 44.0729 37.4075 44.8565 35.9404 44.8535H26.6986V42.7998H39.4934Z" fill="#FFDAAA"/>
<path d="M10.2687 36.6387H0V57.1761H10.2687V36.6387Z" fill="#3D9AE2"/>
<path d="M10.2687 40.7461H12.3224V54.0954H10.2687V40.7461Z" fill="#FFC477"/>
<path d="M39.4934 42.7998C38.7633 44.0729 37.4075 44.8565 35.9404 44.8535H26.6986V42.7998H39.4934Z" fill="#FFC477"/>
</g>
<defs>
<clipPath id="clip0">
<rect width="60" height="60" fill="white"/>
</clipPath>
</defs>
</svg>
