<svg width="52" height="52" viewBox="0 0 52 52" fill="none" xmlns="http://www.w3.org/2000/svg">
<path d="M19.9333 43.3335C19.9333 45.2479 21.4855 46.8001 23.4 46.8001H32.9333H38.1333H47.6667C49.5811 46.8001 51.1333 45.2479 51.1333 43.3335V42.4668H19.9333V43.3335Z" fill="#60C4C2"/>
<path d="M31.2 51.1331H39.8667L38.1333 46.7998H32.9333L31.2 51.1331Z" fill="#FF9F1C"/>
<path d="M13 0.866699H0.866669V17.3334H16.4667V6.93337V4.33337C16.4667 2.4189 14.9145 0.866699 13 0.866699Z" fill="#CBF3F0"/>
<path d="M0.866669 21.6668H13C14.9145 21.6668 16.4667 20.1146 16.4667 18.2002V17.3335H0.866669V21.6668Z" fill="#60C4C2"/>
<path d="M0.866669 25.9998H1.73334H5.2L3.46667 21.6665H0.866669V25.9998Z" fill="#FF9F1C"/>
<path d="M47.6667 26H23.4C21.4855 26 19.9333 27.5522 19.9333 29.4667V42.4667H51.1333V29.4667C51.1333 27.5522 49.5811 26 47.6667 26Z" fill="#CBF3F0"/>
<path d="M35.5333 17.3335C31.2251 17.3335 27.7333 20.8253 27.7333 25.1335C27.7333 27.5853 28.8669 29.7702 30.6358 31.2002H35.5333H40.4309C42.1997 29.7702 43.3333 27.5853 43.3333 25.1335C43.3333 20.8253 39.8415 17.3335 35.5333 17.3335Z" fill="#FF9F1C"/>
<path d="M47.6667 25.1333H45.9333V26.8666H47.6667C49.1001 26.8666 50.2667 28.0332 50.2667 29.4666V41.6H20.8V29.4666C20.8 28.0332 21.9665 26.8666 23.4 26.8666H25.1333V25.1333H23.4C21.0106 25.1333 19.0667 27.0772 19.0667 29.4666V43.3333C19.0667 45.7227 21.0106 47.6666 23.4 47.6666H31.6533L30.6133 50.2666H27.7333V52H31.2H39.8667H43.3333V50.2666H40.4534L39.4134 47.6666H47.6667C50.0561 47.6666 52 45.7227 52 43.3333V29.4666C52 27.0772 50.0561 25.1333 47.6667 25.1333ZM38.5866 50.2666H32.4801L33.5201 47.6666H37.5466L38.5866 50.2666ZM47.6667 45.9333H38.1333H32.9333H23.4C21.9665 45.9333 20.8 44.7668 20.8 43.3333H50.2667C50.2667 44.7668 49.1001 45.9333 47.6667 45.9333Z" fill="#3F3F3F"/>
<path d="M0.866667 26.8667H1.73333H5.2H8.66667V25.1333H5.78673L4.74673 22.5333H13C15.3894 22.5333 17.3333 20.5894 17.3333 18.2V7.8H32.0667C33.5001 7.8 34.6667 8.96653 34.6667 10.4V13.5079L32.6794 11.5206L31.4539 12.7461L34.9206 16.2127C35.0896 16.3817 35.3115 16.4667 35.5333 16.4667C35.7552 16.4667 35.9771 16.3817 36.1461 16.2127L39.6127 12.7461L38.3873 11.5206L36.4 13.5079V10.4C36.4 8.0106 34.4561 6.06667 32.0667 6.06667H17.3333V4.33333C17.3333 1.94393 15.3894 0 13 0H0.866667C0.388267 0 0 0.388267 0 0.866667V21.6667V26C0 26.4784 0.388267 26.8667 0.866667 26.8667ZM3.91993 25.1333H1.73333V22.5333H2.87993L3.91993 25.1333ZM13 20.8H3.46667H1.73333V18.2H15.6C15.6 19.6335 14.4335 20.8 13 20.8ZM13 1.73333C14.4335 1.73333 15.6 2.89987 15.6 4.33333V6.06667H12.1333V7.8H15.6V16.4667H1.73333V1.73333H13Z" fill="#3F3F3F"/>
<path d="M6.93335 7.80016H10.4V6.06683H6.93335V4.3335H5.20001V9.5335H6.93335V7.80016Z" fill="#3F3F3F"/>
<path d="M26.8667 25.1335C26.8667 27.0375 27.4915 28.848 28.6113 30.3335H26V32.0668H30.6358H40.4309H45.0667V30.3335H42.4554C43.5751 28.848 44.2 27.0375 44.2 25.1335C44.2 20.3547 40.3121 16.4668 35.5333 16.4668C30.7545 16.4668 26.8667 20.3547 26.8667 25.1335ZM35.5333 18.2001C39.3562 18.2001 42.4667 21.3106 42.4667 25.1335C42.4667 27.1355 41.613 29.0144 40.1145 30.3335H36.4V30.174C37.4062 29.8152 38.1333 28.8619 38.1333 27.7335V26.8668C38.1333 25.4333 36.9668 24.2668 35.5333 24.2668C35.0558 24.2668 34.6667 23.8777 34.6667 23.4001V22.5335C34.6667 22.0559 35.0558 21.6668 35.5333 21.6668C36.0109 21.6668 36.4 22.0559 36.4 22.5335H38.1333C38.1333 21.4051 37.4062 20.4517 36.4 20.0929V19.0668H34.6667V20.0929C33.6605 20.4517 32.9333 21.4051 32.9333 22.5335V23.4001C32.9333 24.8336 34.0999 26.0001 35.5333 26.0001C36.0109 26.0001 36.4 26.3893 36.4 26.8668V27.7335C36.4 28.211 36.0109 28.6001 35.5333 28.6001C35.0558 28.6001 34.6667 28.211 34.6667 27.7335H32.9333C32.9333 28.8619 33.6605 29.8152 34.6667 30.174V30.3335H30.9521C29.4537 29.0144 28.6 27.1355 28.6 25.1335C28.6 21.3106 31.7105 18.2001 35.5333 18.2001Z" fill="#3F3F3F"/>
<path d="M13.8667 13H12.1333V14.7333H13.8667V13Z" fill="#3F3F3F"/>
<path d="M10.4 13H8.66666V14.7333H10.4V13Z" fill="#3F3F3F"/>
<path d="M6.93335 13H5.20001V14.7333H6.93335V13Z" fill="#3F3F3F"/>
</svg>
