<svg width="46" height="46" viewBox="0 0 46 46" fill="none" xmlns="http://www.w3.org/2000/svg">
<path fill-rule="evenodd" clip-rule="evenodd" d="M44.0758 22.1625C43.9173 33.6851 34.5226 42.9439 23 42.9439C11.4774 42.9439 2.08269 33.6851 1.92422 22.1625C1.92422 21.6871 1.94686 21.2343 1.9695 20.7815L14.7372 28.0256L41.7441 12.6546C43.2835 15.5975 44.0758 18.8573 44.0758 22.1625ZM14.7372 22.7284L2.85237 15.9823C2.626 16.7294 2.42226 17.4991 2.28643 18.2688L14.7372 25.3544L40.5896 10.6625C40.1595 10.006 39.7067 9.39474 39.2087 8.82879L14.7372 22.7284ZM37.624 7.10832C37.0354 6.54237 36.4016 6.0217 35.7677 5.54631L14.7372 17.4991L4.68604 11.7943C4.30119 12.4508 3.96163 13.13 3.66734 13.8091L14.7372 20.125L37.624 7.10832ZM14.7372 15.0089L33.6398 4.25596C32.8475 3.8032 32.0099 3.39572 31.1723 3.05615L14.7372 12.3829L7.40257 8.24021C6.8819 8.80615 6.40651 9.39474 5.93111 10.006L14.7372 15.0089Z" fill="#299D37"/>
</svg>
