<svg xmlns="http://www.w3.org/2000/svg" width="57" height="97" viewBox="0 0 57 97.68"><path fill="#826550" d="M51.12 15.24C50.73 9.79 50.51 4.39 48.6 0c-.76 0-1.53 7.31-2.28 10.92-1.48 7.14-3.71 8.28-4.44 8.28-.86-3.86-4.38-4.24-7.8-5.88-1.21-.58-2.31-1.05-3.6-1.2-.67-.08-1.29.1-1.98.12-.69-.02-1.31-.19-1.98-.12-1.29.15-2.39.62-3.6 1.2-3.42 1.64-6.94 2.02-7.8 5.88-.72 0-2.96-1.14-4.44-8.28C9.93 7.31 9.16 0 8.4 0 6.49 4.39 6.27 9.79 5.88 15.24 5 38.78 0 51.53 0 62.4c0 26.07 11.71 35.28 28.5 35.28S57 88.47 57 62.4c0-10.87-5-23.62-5.88-47.16zm-16.68 9.72c-2.79 1.17-5.35-.71-5.88-.72-.02 0-.04.01-.06.01-.02 0-.04-.01-.06-.01-.53.01-3.09 1.89-5.88.72-.79-3.58 2.4-4.04 5.94-3.9 3.55-.14 6.73.32 5.94 3.9z"/></svg>