<svg xmlns="http://www.w3.org/2000/svg" width="57" height="68" viewBox="0 0 57.68 68.64"><path fill="#826550" d="M51.6 22.2c.12-1.7.47-3.51.72-5.4.7-5.43 1.6-11.67-.12-16.8h-.24c-1.32 3.74-1.26 8.35-2.16 12.36-.66 2.96-1.77 5.65-3.24 7.56-.53.69-1.06 1.54-1.92 1.8-.66-3.92-4.28-4.94-7.68-6.36-2.13-.89-3.97-2.02-6.12-2.16-.79-.05-1.47.19-2 .23-.53-.04-1.21-.28-2-.23-2.15.14-3.99 1.27-6.12 2.16-3.4 1.42-7.02 2.44-7.68 6.36-.86-.25-1.39-1.11-1.92-1.8-1.47-1.91-2.57-4.6-3.24-7.56C6.98 8.35 7.05 3.74 5.72 0h-.24c-1.72 5.13-.82 11.37-.12 16.8.25 1.89.6 3.7.72 5.4.79 11.05-6.95 23.12-6 28.92.93 7.53 8.4 9.4 14.16 12.36 4.35 2.24 8.31 4.95 13.32 5.16h2.56c5.01-.21 8.98-2.92 13.32-5.16 5.76-2.96 13.23-4.83 14.16-12.36.95-5.8-6.79-17.87-6-28.92zm-22.76 3.75c-2.54.04-5.07-.09-7.16-.5.66-2.05 4.03-1.56 7.08-1.56h.16c3.05 0 6.42-.49 7.08 1.56-2.09.4-4.62.53-7.16.5z"/></svg>