<svg xmlns="http://www.w3.org/2000/svg" viewBox="0 0 62.4 78.49"><path fill="#826550" d="M62.4 42c0-5.21-2.37-7.78-3.6-9.96-.91-1.61-3.98-10.75-4.2-17.64-.07-4.91-1.69-12.45-2.88-14.4-.86 0-1.52 7.78-2.28 11.64-1.43 7.04-3.77 8.93-4.44 9-.76-2.81-4.11-7.36-13.68-7.72a.84.84 0 00-.12-.04l-.13.04c-9.56.36-12.92 4.92-13.67 7.72-.67-.07-3.01-1.96-4.44-9C12.2 7.78 11.54 0 10.68 0 9.49 1.95 7.87 9.49 7.8 14.4c-.23 6.89-3.29 16.03-4.2 17.64C2.37 34.22 0 36.79 0 42c0 3.74 5.2 7.2 5.64 11.4.12 1.22-.03 2.35.12 3.36 2 17.48 17.87 21.73 25.44 21.73s23.44-4.24 25.44-21.73c.15-1.01 0-2.14.12-3.36.44-4.2 5.64-7.65 5.64-11.4zM33.24 26.76c-.69-.13-3.39-.13-4.08 0-1.73.34-5.76.99-5.76-1.08 0-1.07 6.72-2.29 7.8-2.29s7.8 1.23 7.8 2.29c0 2.07-4.03 1.42-5.76 1.08z"/></svg>