<svg xmlns="http://www.w3.org/2000/svg" fill="#fff" viewBox="0 0 141.7 139.5"><path d="M71.8 21.5V1c0-.6-.4-1-1-1s-1 .4-1 1v20.5h2zM45.8 28.4l1.7-1L37.3 9.7c-.3-.5-.9-.6-1.4-.4-.5.3-.6.9-.4 1.4l10.3 17.7zM10.5 34.7c-.3.5-.1 1.1.4 1.4l17.7 10.3 1-1.7-17.7-10.3c-.5-.3-1.1-.2-1.4.3zM106.4 8.5c-.5-.3-1.1-.1-1.4.4L94.2 27.5l1.7 1 10.8-18.6c.4-.5.2-1.1-.3-1.4zM131.8 35.7c.5-.3.6-.9.4-1.4-.3-.5-.9-.6-1.4-.4l-18.6 10.8 1 1.7 18.6-10.7zM22.5 69.8v-1H1c-.6 0-1 .4-1 1s.4 1 1 1h21.5v-1zM140.7 68.8h-21.5v2h21.5c.6 0 1-.4 1-1s-.5-1-1-1zM130.8 103.4l-17.7-10.3-1 1.7 17.7 10.3.5.1c.3 0 .7-.2.9-.5.2-.4.1-1-.4-1.3zM9.9 103.9c-.5.3-.6.9-.4 1.4.2.3.5.5.9.5l.5-.1 18.6-10.8-1-1.7-18.6 10.7zM95.9 111.1l-1.7 1 10.2 17.7c.2.3.5.5.9.5l.5-.1c.5-.3.6-.9.4-1.4l-10.3-17.7zM34.9 129.7c-.3.5-.1 1.1.4 1.4l.5.1c.3 0 .7-.2.9-.5l10.8-18.6-1.7-1-10.9 18.6zM69.8 118.1v20.5c0 .6.4 1 1 1s1-.4 1-1v-20.5h-2zM104.7 51.9c.7-.4 1-1.3.5-2-.4-.7-1.3-1-2-.5L74.8 65.7c-1-1-2.4-1.6-4-1.6a6 6 0 00-4 1.6L46.5 53.9c-.7-.4-1.6-.2-2.1.5-.4.7-.2 1.6.5 2.1l20.3 11.8-.2 1.4a5.7 5.7 0 1011.2-1.4l28.5-16.4zM75.3 66.3zm.4.6zm-9.7 0c-.1 0-.1 0 0 0-.1 0-.1 0 0 0zm.4-.6s-.1 0 0 0c-.1 0 0 0 0 0zm4.4 6.1c-1.5 0-2.7-1.2-2.7-2.7s1.2-2.7 2.7-2.7c1.5 0 2.7 1.2 2.7 2.7s-1.2 2.7-2.7 2.7z"/></svg>