<svg id="Слой_1" data-name="Слой 1" xmlns="http://www.w3.org/2000/svg" viewBox="0 0 583.5 232.5"><defs><style>.cls-1{fill:none;stroke:#fff;stroke-miterlimit:10;}</style></defs><title>Безымянный-3</title><polyline class="cls-1" points="582.5 0.5 511.5 0.5 503.5 8.5 473.5 8.5 397 85 189.5 85 183.25 91.25"/><circle class="cls-1" cx="175.5" cy="98.5" r="11"/><polyline class="cls-1" points="582.5 33.5 498.5 33.5 414 118 205.5 118"/><polyline class="cls-1" points="583.5 79.5 514.5 79.5 447.5 146.5 225.5 146.5 218.5 153.5 195.5 153.5 183 166 117.5 166 105.75 154.25 66.5 154.25 55.88 164.88 29.5 164.88"/><polyline class="cls-1" points="582.5 95.5 519.5 95.5 438 177 253.5 177 238.25 192.25 104.5 192.25 92.63 180.38 84.5 180.38"/><polyline class="cls-1" points="582.5 117.5 527.5 117.5 433.5 211.5 101.5 211.5 90 200 38.5 200 34.25 204.25 22.5 204.25"/><polyline class="cls-1" points="582.5 143.5 564.5 143.5 476 232 69.5 232 62.25 224.75"/><circle class="cls-1" cx="194.5" cy="118.5" r="11"/><circle class="cls-1" cx="73.5" cy="180.5" r="11"/><circle class="cls-1" cx="18.5" cy="164.5" r="11"/><circle class="cls-1" cx="11.5" cy="204.5" r="11"/><circle class="cls-1" cx="53.5" cy="218.5" r="11"/></svg>