<?xml version="1.0" encoding="utf-8"?>
<!-- Generator: Adobe Illustrator 23.0.1, SVG Export Plug-In . SVG Version: 6.00 Build 0)  -->
<svg version="1.1" id="Слой_1" xmlns="http://www.w3.org/2000/svg" xmlns:xlink="http://www.w3.org/1999/xlink" x="0px" y="0px"
	 viewBox="0 0 980 481.7" style="enable-background:new 0 0 980 481.7;" xml:space="preserve">
<style type="text/css">
	.st0{fill:#FFFFFF;}
</style>
<g>
	<title>Layer 1</title>
	<path id="svg_2" class="st0" d="M916.6,100.7c5.3-5.8,5.5-14.7,0.2-20.7C872.2,29.2,807.8,0,740.2,0L633.8,0
		c-7.8,0-14.2,5.7-15.3,13.2l-113.5,0v-0.1h-32v0.1l-111.3,0C360.6,5.7,354.2,0,346.4,0L239.8,0c-67.6,0-132,29.2-176.6,80.1
		c-5.2,6-5.1,14.8,0.2,20.6c-33.5,41.5-51.7,92.7-51.7,146.8c0,62.6,24.4,121.4,68.6,165.6c44.2,44.3,103.1,68.6,165.6,68.6
		c50.1,0,98.1-15.7,138.7-45.4c1.9-1.4,4.4-2.1,6.9-2.1h196.8c2.5,0,5,0.7,6.9,2.1c40.7,29.8,88.6,45.5,138.7,45.5
		c62.6,0,121.4-24.4,165.6-68.6c44.2-44.2,68.6-103.1,68.6-165.6C968.2,193.4,950,142.2,916.6,100.7z M734,451.7
		c-43.7,0-85.5-13.7-121-39.6c-7.1-5.2-15.7-7.9-24.6-7.9H391.5c-9,0-17.5,2.7-24.6,7.9c-35.5,26-77.3,39.7-121,39.7
		c-112.6,0-204.2-91.6-204.2-204.3c0-112.6,91.6-204.2,204.2-204.2l488.1,0c112.6,0,204.2,91.6,204.2,204.2S846.6,451.7,734,451.7
		L734,451.7z"/>
	<path id="svg_3" class="st0" d="M245.9,108.7c-76.5,0-138.7,62.2-138.7,138.7s62.2,138.7,138.7,138.7s138.7-62.2,138.7-138.7
		S322.4,108.7,245.9,108.7z M245.9,366.1c-65.4,0-118.7-53.2-118.7-118.7s53.2-118.7,118.7-118.7S364.6,182,364.6,247.4
		S311.3,366.1,245.9,366.1z"/>
	<path id="svg_4" class="st0" d="M468.8,262.9c-3.7-3.7-9.6-3.7-13.3,0l-31.5,31.5c-3.7,3.7-3.7,9.6,0,13.3l1.7,1.7
		c3.7,3.7,9.6,3.7,13.3,0l31.5-31.5c3.7-3.7,3.7-9.6,0-13.3L468.8,262.9z"/>
	<path id="svg_5" class="st0" d="M530.5,268.5c-3.7-3.7-9.6-3.7-13.3,0L485.7,300c-3.7,3.7-3.7,9.6,0,13.3l1.7,1.7
		c3.7,3.7,9.6,3.7,13.3,0l31.5-31.5c3.7-3.7,3.7-9.6,0-13.3L530.5,268.5z"/>
	<path id="svg_6" class="st0" d="M307.7,228.1H267v-40.9c0-4.6-4.1-8.1-8.7-8.1h-24.7c-4.6,0-8.5,3.4-8.5,8.1v40.9h-40.9
		c-4.6,0-8.1,3.8-8.1,8.5v24.7c0,4.6,3.5,8.8,8.1,8.8H225v40.6c0,4.6,3.9,8.4,8.5,8.4h24.7c4.6,0,8.7-3.7,8.7-8.4v-40.6h40.7
		c4.6,0,8.3-4.1,8.3-8.8v-24.7C316,232,312.3,228.1,307.7,228.1z"/>
	<path id="svg_7" class="st0" d="M734,79.1c-92.9,0-168.3,75.3-168.3,168.3S641.1,415.7,734,415.7s168.3-75.3,168.3-168.3
		S826.9,79.1,734,79.1z M624.5,275.4L624.5,275.4c-15.2-15.2-15.2-40,0-55.2l80.8-80.8c15.2-15.2,40-15.2,55.2,0l0,0
		c15.2,15.2,15.2,40,0,55.2l-80.8,80.8C664.5,290.6,639.7,290.6,624.5,275.4z M842.1,276.1L761.2,357c-15.2,15.2-40,15.2-55.2,0l0,0
		c-15.2-15.2-15.2-40,0-55.2l80.8-80.8c15.2-15.2,40-15.2,55.2,0S857.3,260.9,842.1,276.1z"/>
	<circle id="svg_8" class="st0" cx="652.3" cy="247.2" r="28.4"/>
	<circle id="svg_9" class="st0" cx="730.6" cy="168.8" r="28.4"/>
	<circle id="svg_10" class="st0" cx="733.8" cy="328.7" r="28.4"/>
	<circle id="svg_11" class="st0" cx="812.1" cy="250.4" r="28.4"/>
</g>
</svg>
